<svg width="99" height="99" viewBox="0 0 99 99" fill="none" xmlns="http://www.w3.org/2000/svg">
<path fill-rule="evenodd" clip-rule="evenodd" d="M18.4145 59.0391C18.4145 57.8874 17.3782 56.9675 16.1314 56.9436C8.00712 56.9436 3.95505 56.9436 3.95505 56.9436C2.68393 56.9436 1.64765 57.8876 1.64765 59.0391V81.4589C1.64765 82.6129 2.68393 83.555 3.95505 83.555H16.1314C17.3782 83.555 18.4145 82.6129 18.4145 81.4589C18.4145 73.9937 18.4145 66.5296 18.4145 59.0391ZM48.1102 45.9471H90.1227C91.4897 45.9471 92.6183 47.077 92.6183 48.4415V76.5847H45.615V48.4415C45.615 47.077 46.7447 45.9471 48.1102 45.9471ZM40.8804 78.9859H60.4027V80.1405C60.4027 80.7997 60.922 81.3188 61.5572 81.3188H76.6749C77.3128 81.3188 77.8538 80.7997 77.8538 80.1405V78.9859H97.3513V81.2711C97.3513 82.5204 96.3153 83.555 95.0679 83.555H43.1652C41.917 83.555 40.8802 82.5206 40.8802 81.2711L40.8804 78.9859ZM48.7696 49.0793H89.4863V74.8891H48.7696V49.0793ZM39.0909 83.555H21.7107V80.187H25.8559C28.0699 80.1633 29.9775 78.9151 30.9194 77.0789H37.8188C38.0784 77.0789 38.2905 77.0095 38.4786 76.8671V81.2713C38.4788 82.0959 38.714 82.8738 39.0909 83.555ZM38.7849 76.5847C38.9497 76.3956 39.0203 76.137 39.0203 75.8786C39.0203 75.2194 38.4786 74.6772 37.8188 74.6772H31.5558C31.5558 74.6079 31.5558 74.5359 31.5558 74.4647V69.804H43.2129V76.5849H38.7849V76.5847ZM1.64765 15.8496H78.5597V43.5444H48.1102C45.4259 43.5444 43.2131 45.7352 43.2131 48.4415V58.64H20.7927C20.5818 56.2848 18.4847 54.5654 16.1312 54.5654C12.0569 54.5654 8.00693 54.5424 3.93209 54.5654C3.13124 54.5654 2.32982 54.7784 1.64746 55.1302L1.64765 15.8496ZM43.2131 67.4246H20.8176V61.0433H43.2131V67.4246ZM39.138 64.8337C38.4788 64.8337 37.9377 64.2917 37.9377 63.6323C37.9377 62.9738 38.4786 62.432 39.138 62.432H41.2584C41.9168 62.432 42.4587 62.9736 42.4587 63.6323C42.4587 64.2917 41.9168 64.8337 41.2584 64.8337H39.138ZM4.04961 59.8405C4.04961 65.8461 4.02568 71.8514 4.04961 77.857H16.0138C16.0366 71.8514 16.0366 65.8461 16.0138 59.8405H4.04961ZM9.58355 81.7873C8.92415 81.7873 8.38324 81.2713 8.38324 80.5878C8.38324 79.9297 8.92415 79.411 9.58355 79.411H10.4786C11.1372 79.411 11.6791 79.9299 11.6791 80.5878C11.6791 81.2711 11.1372 81.7873 10.4786 81.7873H9.58355Z" fill="#F57F20"/>
</svg>
