<svg width="94" height="93" viewBox="0 0 94 93" fill="none" xmlns="http://www.w3.org/2000/svg">
<path d="M33.324 60.3396C28.8287 63.8702 25.9348 69.3494 25.9348 75.5038V81.2916H14.3591C11.1565 81.2916 8.57129 78.7064 8.57129 75.5038V71.6452C8.57129 64.1789 14.6099 58.1403 22.0763 58.1403H25.9348C28.6744 58.1403 31.2018 58.9506 33.324 60.3396Z" fill="#F57F20"/>
<path d="M70.3087 58.1403C75.1035 58.1403 78.9905 54.2533 78.9905 49.4585C78.9905 44.6637 75.1035 40.7767 70.3087 40.7767C65.5139 40.7767 61.627 44.6637 61.627 49.4585C61.627 54.2533 65.5139 58.1403 70.3087 58.1403Z" fill="#F57F20"/>
<path d="M24.006 58.1403C28.8008 58.1403 32.6878 54.2533 32.6878 49.4585C32.6878 44.6637 28.8008 40.7767 24.006 40.7767C19.2112 40.7767 15.3242 44.6637 15.3242 49.4585C15.3242 54.2533 19.2112 58.1403 24.006 58.1403Z" fill="#F57F20"/>
<path d="M85.7429 71.6452V75.5038C85.7429 78.7064 83.1577 81.2916 79.9551 81.2916H68.3794V75.5038C68.3794 69.3494 65.4855 63.8702 60.9902 60.3396C63.1124 58.9506 65.6398 58.1403 68.3794 58.1403H72.2379C79.7043 58.1403 85.7429 64.1789 85.7429 71.6452Z" fill="#F57F20"/>
<path d="M47.1569 60.0695C53.0173 60.0695 57.768 55.3188 57.768 49.4585C57.768 43.5981 53.0173 38.8474 47.1569 38.8474C41.2966 38.8474 36.5459 43.5981 36.5459 49.4585C36.5459 55.3188 41.2966 60.0695 47.1569 60.0695Z" fill="#F57F20"/>
<path d="M49.0868 60.0696H45.2282C36.7181 60.0696 29.7939 66.9938 29.7939 75.5038V81.2917C29.7939 84.4827 32.3908 87.0795 35.5818 87.0795H58.7332C61.9242 87.0795 64.521 84.4827 64.521 81.2917V75.5038C64.521 66.9938 57.5968 60.0696 49.0868 60.0696Z" fill="#F57F20"/>
<path d="M75.1318 32.45L70.4765 34.1053C69.1549 34.5741 67.7755 33.5728 67.8141 32.1702L67.9491 27.2313L64.9356 23.3148C64.0809 22.2036 64.6076 20.581 65.9523 20.1836L70.6926 18.7868L73.4862 14.7102C74.2791 13.5546 75.9846 13.5546 76.7775 14.7102L79.5711 18.7868L84.3114 20.1836C85.6561 20.5791 86.1828 22.2036 85.3281 23.3148L82.3146 27.2313L82.4496 32.1702C82.4882 33.5709 81.1068 34.5741 79.7872 34.1053L75.1318 32.45Z" fill="#F57F20"/>
<path d="M19.1826 32.45L14.5273 34.1053C13.2057 34.5741 11.8263 33.5728 11.8649 32.1702L11.9999 27.2313L8.98638 23.3148C8.13171 22.2036 8.6584 20.581 10.0031 20.1836L14.7434 18.7868L17.537 14.7102C18.3299 13.5546 20.0354 13.5546 20.8283 14.7102L23.6219 18.7868L28.3622 20.1836C29.7069 20.5791 30.2336 22.2036 29.3789 23.3148L26.3653 27.2313L26.5004 32.1702C26.539 33.5709 25.1576 34.5741 23.838 34.1053L19.1826 32.45Z" fill="#F57F20"/>
<path d="M47.1577 28.1091L41.638 30.0711C40.0715 30.6287 38.4354 29.4383 38.4817 27.7772L38.6419 21.9219L35.0688 17.2781C34.056 15.9604 34.6811 14.0369 36.2746 13.5661L41.8946 11.9089L45.2072 7.07603C46.1468 5.70431 48.1706 5.70431 49.1102 7.07603L52.4227 11.9089L58.0427 13.5661C59.6363 14.0369 60.2614 15.9604 59.2485 17.2781L55.6755 21.9219L55.8356 27.7772C55.8819 29.4383 54.244 30.6287 52.6793 30.0711L47.1577 28.1091Z" fill="#F57F20"/>
</svg>
