<svg width="73" height="73" viewBox="0 0 73 73" fill="none" xmlns="http://www.w3.org/2000/svg">
<g clip-path="url(#clip0_278_3376)">
<path d="M9.12514 41.0626C9.12514 43.9421 11.4599 46.2768 14.3394 46.2768C17.219 46.2768 19.5537 43.9421 19.5537 41.0626C19.5537 38.183 17.219 35.8483 14.3394 35.8483C11.4599 35.8483 9.12514 38.183 9.12514 41.0626Z" fill="#F57F20"/>
<path d="M53.4464 41.0626C53.4464 43.9421 55.7811 46.2768 58.6607 46.2768C61.5403 46.2768 63.875 43.9421 63.875 41.0626C63.875 38.183 61.5403 35.8483 58.6607 35.8483C55.7811 35.8483 53.4464 38.183 53.4464 41.0626Z" fill="#F57F20"/>
<path d="M31.2853 35.8482C31.2853 38.7278 33.62 41.0625 36.4996 41.0625C39.3792 41.0625 41.7139 38.7278 41.7139 35.8482C41.7139 32.9686 39.3792 30.6339 36.4996 30.6339C33.62 30.6339 31.2853 32.9686 31.2853 35.8482Z" fill="#F57F20"/>
<path d="M52.1066 71.0447C52.9729 69.9251 53.4439 68.5496 53.4464 67.134V54.0982C53.4407 52.7794 53.2122 51.4707 52.7711 50.2276C52.9951 50.2124 53.2173 50.1875 53.4464 50.1875H63.875C65.7056 50.1824 67.4942 50.7343 69.0034 51.7699C71.5004 53.4687 72.9968 56.2923 73 59.3125V64.5268C72.9955 67.0697 71.5144 69.3789 69.2051 70.4438C68.7532 70.6577 68.2765 70.8155 67.7857 70.9142V56.7054H65.1786V71.0447H52.1066Z" fill="#F57F20"/>
<path d="M50.7988 72.3482C50.8128 72.338 50.8242 72.3246 50.8389 72.3145V72.3482H50.7988Z" fill="#F57F20"/>
<path d="M23.2303 49.8133C23.9292 48.5084 24.9317 47.3907 26.1531 46.5544C26.2741 46.4646 26.4014 46.3831 26.5338 46.3106C27.9646 45.436 29.6087 44.9733 31.2853 44.9733H41.7139C46.7537 44.9733 50.8389 49.0584 50.8389 54.0983V67.134C50.8389 69.2937 49.0878 71.0447 46.9282 71.0447H45.6246V52.7947H43.0174V71.0447H29.9817V52.7947H27.3746V71.0447H26.071C23.9113 71.0447 22.1603 69.2937 22.1603 67.134V54.0983C22.1597 52.6037 22.5276 51.1321 23.2303 49.8133Z" fill="#F57F20"/>
<path d="M3.99295 51.7724C5.50276 50.7356 7.29326 50.1824 9.12513 50.1875H19.5537C19.7816 50.1875 20.0037 50.2124 20.2278 50.2276C19.7873 51.4714 19.5594 52.7794 19.5537 54.0982V67.134C19.5562 68.5496 20.0273 69.9251 20.8936 71.0447H7.82156V56.7054H5.21442V70.9142C4.73131 70.8174 4.2622 70.6615 3.81728 70.4502C1.49656 69.391 0.00585938 67.0773 0.0001297 64.5268V59.3125C0.00331306 56.2936 1.49784 53.4719 3.99295 51.7724Z" fill="#F57F20"/>
<path d="M36.5 17.5982C41.8308 17.5874 46.7987 20.2976 49.6751 24.7863C52.5515 29.2743 52.9385 34.9202 50.7024 39.7589H43.2629C45.1724 36.472 44.4424 32.2888 41.5329 29.8427C38.6234 27.3973 34.3766 27.3973 31.4671 29.8427C28.5576 32.2888 27.8276 36.472 29.7371 39.7589H22.2912C20.0545 34.9189 20.4421 29.2718 23.3204 24.7831C26.1981 20.2944 31.168 17.5855 36.5 17.5982Z" fill="#F57F20"/>
<path d="M5.21387 28.0267H12.253L12.5064 27.0478C13.0818 24.8079 13.978 22.6629 15.1651 20.6782L15.687 19.8062L10.6891 14.7994C10.4453 14.5569 10.3085 14.2272 10.3085 13.8835C10.3085 13.5398 10.4453 13.2101 10.6891 12.9682L16.2248 7.43056C16.736 6.94299 17.5392 6.94299 18.0504 7.43056L23.0571 12.4373L23.9292 11.916C25.9163 10.7277 28.0639 9.83211 30.3063 9.25543L31.2853 9.00083V1.9553C31.2853 1.23541 31.869 0.651733 32.5889 0.651733H40.4103C41.1302 0.651733 41.7139 1.23541 41.7139 1.9553V8.99446L42.6928 9.24779C44.9327 9.82384 47.0784 10.7188 49.0636 11.9052L49.9357 12.4272L54.9412 7.43056C55.4529 6.93917 56.2607 6.93917 56.7724 7.43056L62.31 12.9663C62.5538 13.2094 62.6913 13.5391 62.6913 13.8829C62.6913 14.2272 62.5538 14.5569 62.31 14.7994L57.3033 19.8062L57.8246 20.6782C59.0123 22.6629 59.9079 24.8079 60.4839 27.0478L60.7398 28.0267H67.7853C68.5052 28.0267 69.0889 28.6104 69.0889 29.3303V37.1517C69.0889 37.8716 68.5052 38.4553 67.7853 38.4553H66.0215C65.2475 36.253 63.5277 34.5128 61.3343 33.7133C59.1409 32.9132 56.7049 33.1379 54.6948 34.3256C54.7158 33.9647 54.7496 33.607 54.7496 33.241C54.7496 23.1619 46.5787 14.991 36.4996 14.991C26.4205 14.991 18.2496 23.1619 18.2496 33.241C18.2496 33.607 18.2833 33.9647 18.3043 34.3256C16.2942 33.1379 13.8583 32.9132 11.6649 33.7133C9.47148 34.5128 7.75163 36.253 6.97763 38.4553H5.21387C4.49397 38.4553 3.91029 37.8716 3.91029 37.1517V29.3303C3.91029 28.6104 4.49397 28.0267 5.21387 28.0267Z" fill="#F57F20"/>
</g>
<defs>
<clipPath id="clip0_278_3376">
<rect width="73" height="73" fill="white" transform="matrix(-1 0 0 1 73 0)"/>
</clipPath>
</defs>
</svg>
