<svg width="85" height="85" viewBox="0 0 85 85" fill="none" xmlns="http://www.w3.org/2000/svg">
<g clip-path="url(#clip0_278_3224)">
<path d="M82.3575 33.0624L76.2332 31.8377C75.5594 29.6043 74.6664 27.4478 73.5664 25.3971L77.0302 20.2014C77.6811 19.2252 77.5524 17.9255 76.7228 17.0962L67.4421 7.8153C66.6126 6.9858 65.3129 6.85718 64.3369 7.50769L59.1409 10.9715C57.0902 9.87166 54.9338 8.97884 52.7003 8.30487L51.4755 2.18041C51.2457 1.03017 50.2355 0.202148 49.0625 0.202148H35.9375C34.7645 0.202148 33.7543 1.03017 33.5243 2.18041L32.2996 8.30487C30.066 8.97884 27.9096 9.87183 25.859 10.9715L20.663 7.50769C19.6871 6.85718 18.3872 6.9858 17.5577 7.8153L8.27705 17.0962C7.44739 17.9257 7.31877 19.2254 7.9696 20.2014L11.4335 25.3971C10.3334 27.4478 9.44059 29.6043 8.76662 31.8377L2.64233 33.0624C1.49209 33.2924 0.664062 34.3025 0.664062 35.4756V48.6006C0.664062 49.7736 1.49209 50.7838 2.64249 51.0136L8.76678 52.2385C9.44059 54.4717 10.3336 56.6282 11.4336 58.6789L7.96977 63.8748C7.31893 64.8508 7.44772 66.1505 8.27722 66.98L17.5579 76.2607C18.3876 77.0904 19.6871 77.219 20.6631 76.5683L25.7527 73.1755V57.7266C21.8985 53.6242 19.5312 48.1125 19.5312 42.0381C19.5312 29.3528 29.8147 19.0693 42.5 19.0693C55.1853 19.0693 65.4688 29.3528 65.4688 42.0381C65.4688 48.1125 63.1015 53.6242 59.2473 57.7266V73.1755L64.3369 76.5683C64.7533 76.8459 65.2286 76.9818 65.7011 76.9818C66.3361 76.9818 66.9665 76.7365 67.4419 76.2609L76.7226 66.9802C77.5521 66.1507 77.6809 64.851 77.0301 63.875L73.5662 58.6791C74.6663 56.6283 75.5591 54.4719 76.2331 52.2387L82.3573 51.0138C83.5079 50.7838 84.3359 49.7736 84.3359 48.6006V35.4756C84.3359 34.3025 83.5079 33.2924 82.3575 33.0624Z" fill="#F57F20"/>
<path d="M50.2961 28.554C49.0576 27.8366 47.4862 28.5978 47.2816 30.0143L45.7812 40.3975H39.2188L37.7186 30.0143C37.5138 28.5978 35.9426 27.8366 34.7041 28.554C29.8989 31.3373 26.9141 36.5043 26.9141 42.0381C26.9141 48.0349 30.2724 53.3995 35.6784 56.0381L35.9375 56.1646V81.7413C35.9375 83.1003 37.0393 84.2022 38.3984 84.2022H46.6016C47.9607 84.2022 49.0625 83.1003 49.0625 81.7413V56.1646L49.3216 56.0381C54.7276 53.3995 58.0859 48.0349 58.0859 42.0381C58.0859 36.5043 55.1012 31.3373 50.2961 28.554Z" fill="#F57F20"/>
</g>
<defs>
<clipPath id="clip0_278_3224">
<rect width="84" height="84" fill="white" transform="translate(0.5 0.202148)"/>
</clipPath>
</defs>
</svg>
