<svg width="93" height="93" viewBox="0 0 93 93" fill="none" xmlns="http://www.w3.org/2000/svg">
<path fill-rule="evenodd" clip-rule="evenodd" d="M51.316 33.3972C53.7583 36.0911 55.9552 38.6424 57.9066 41.0698V69.1586H54.5177C51.242 69.1586 49.4614 73.0068 51.5814 75.5035L58.6884 83.8741C53.6296 87.6804 47.0549 89.9441 39.8451 89.8227C19.0651 90.1727 3.54858 70.7212 14.4558 51.5695C17.4914 46.2396 22.1313 40.2835 28.3747 33.397C28.9923 33.5718 29.6433 33.6656 30.3155 33.6656H49.3754C50.0474 33.6656 50.6984 33.572 51.316 33.3972ZM68.7112 89.4825L82.1601 73.6427C82.6997 73.0068 82.2495 72.0336 81.4154 72.0336H75.1515V40.9047C75.1515 39.8286 74.2739 38.951 73.1978 38.951L62.7351 38.9511C61.659 38.9511 60.7816 39.8287 60.7814 40.9049V72.0336H54.5175C53.6835 72.0336 53.2334 73.007 53.7729 73.6427L67.2217 89.4825C67.612 89.942 68.3212 89.9421 68.7112 89.4825ZM30.3154 30.7906H49.3752C51.7251 30.7906 53.6476 28.868 53.6476 26.5186C53.6476 24.1686 51.7251 22.2463 49.3752 22.2463H30.3154C27.9654 22.2463 26.0431 24.1686 26.0431 26.5184C26.0431 28.8683 27.9654 30.7906 30.3154 30.7906ZM40.9335 70.1638C37.9469 70.526 34.5369 69.3773 33.7404 66.1826C33.5512 65.4135 32.7744 64.9435 32.0053 65.1325C31.2363 65.3217 30.7662 66.0985 30.9552 66.8676C31.8364 70.4024 34.8395 72.5223 38.3264 72.9985V74.9352C38.3264 75.729 38.97 76.3727 39.7639 76.3727C40.5577 76.3727 41.2014 75.729 41.2014 74.935V73.0242L41.2704 73.0161C44.9604 72.5682 48.7093 70.3808 48.6099 66.2155C48.6041 65.9702 48.5894 65.7478 48.5653 65.5497C48.0175 61.036 43.9553 59.4553 40.0151 58.8084C38.6622 58.5863 37.2301 58.2057 36.1613 57.508C35.2593 56.9192 34.6119 56.0619 34.5508 54.8019C34.4356 52.4302 36.345 50.9424 38.4843 50.5115C39.4491 50.3173 40.5008 50.3403 41.4522 50.5814C43.0392 50.9837 44.4839 52.0293 45.2443 53.8402C45.5513 54.5721 46.3936 54.9166 47.1255 54.6095C47.8574 54.3026 48.2018 53.4602 47.8947 52.7283C46.6977 49.8772 44.235 48.0448 41.2014 47.609V45.6783C41.2014 44.8844 40.5577 44.2408 39.7639 44.2408C38.97 44.2408 38.3264 44.8844 38.3264 45.6783V47.6315C38.1911 47.6527 38.0567 47.677 37.9228 47.7037C34.3749 48.4182 31.5013 51.1133 31.6869 54.9365C31.8991 59.3103 35.7791 61.0184 39.5545 61.6383C42.0551 62.0489 45.3505 62.9037 45.7126 65.8865C45.7326 66.0514 45.7437 66.183 45.746 66.2827C45.8068 68.8289 43.0543 69.9063 40.9335 70.1638ZM30.7709 19.3713L26.6508 15.2514C24.9434 13.5441 24.9434 10.7499 26.6508 9.04252C28.1031 7.59029 30.402 7.34484 32.13 8.45405C33.4606 9.30774 35.2181 8.58019 35.5551 7.03541C35.9854 5.06496 37.7499 3.57733 39.8453 3.57715C41.9027 3.57715 43.6972 5.02723 44.1357 7.03559C44.4728 8.58001 46.2301 9.3081 47.5605 8.45423C49.2882 7.34537 51.5875 7.59047 53.0397 9.04234C54.7471 10.7497 54.7471 13.5442 53.0397 15.2514L48.9199 19.3711L30.7709 19.3713Z" fill="#F57F20"/>
</svg>
