<svg width="90" height="86" viewBox="0 0 90 86" fill="none" xmlns="http://www.w3.org/2000/svg">
<g clip-path="url(#clip0_278_3363)">
<path d="M82.0898 26.5535H76.5666C71.869 15.3995 61.5252 7.29367 49.6169 5.74557C37.816 4.17233 26.2211 8.71451 18.6354 17.858C16.4055 20.5462 14.6366 23.4687 13.3414 26.5535H7.91016C3.54832 26.5535 0 30.1018 0 34.4637V45.0105C0 49.3724 3.54832 52.9207 7.91016 52.9207H18.7385L17.6055 49.4625C14.307 39.3894 16.1636 29.0974 22.6962 21.2259C29.1155 13.4882 38.9181 9.65934 48.932 10.9726C59.5223 12.3521 68.7148 19.8416 72.357 30.0579L72.3792 30.1171C72.9663 31.6775 73.3783 33.2817 73.6151 34.9323C74.4056 39.8633 73.955 44.8611 72.3148 49.3854L72.3032 49.4168C68.232 60.976 57.2818 68.741 45.0515 68.741C40.6612 68.741 37.0898 72.2893 37.0898 76.6512C37.0898 81.013 40.6382 84.5613 45 84.5613C49.3618 84.5613 52.9102 81.013 52.9102 76.6512V73.0951C63.4384 70.5927 72.2816 63.1295 76.5322 52.9205H82.0898C86.4517 52.9205 90 49.3722 90 45.0104V34.4635C90 30.1016 86.4517 26.5535 82.0898 26.5535Z" fill="#F57F20"/>
<path d="M21.2695 58.1941V63.4675H45C58.0857 63.4675 68.7305 52.8227 68.7305 39.7371C68.7305 26.6514 58.0857 16.0066 45 16.0066C31.9143 16.0066 21.2695 26.6514 21.2695 39.7371C21.2695 45.0724 23.0616 50.2273 26.337 54.3962C25.701 56.6182 23.6719 58.1941 21.2695 58.1941ZM52.9102 37.1003H58.1836V42.3738H52.9102V37.1003ZM42.3633 37.1003H47.6367V42.3738H42.3633V37.1003ZM31.8164 37.1003H37.0898V42.3738H31.8164V37.1003Z" fill="#F57F20"/>
</g>
<defs>
<clipPath id="clip0_278_3363">
<rect width="90" height="90" fill="white"/>
</clipPath>
</defs>
</svg>
