<svg width="51" height="50" viewBox="0 0 51 50" fill="none" xmlns="http://www.w3.org/2000/svg">
<g clip-path="url(#clip0_278_3204)">
<path fill-rule="evenodd" clip-rule="evenodd" d="M24.3945 5.28962C27.4876 5.28962 30.4255 5.95359 33.0738 7.14646L31.6889 8.52996L32.696 13.203L31.2129 14.683C29.2084 13.5188 26.8795 12.8518 24.3945 12.8518C16.8851 12.8518 10.7975 18.9394 10.7975 26.4489C10.7975 33.9584 16.8851 40.046 24.3945 40.046C31.904 40.046 37.9916 33.9584 37.9916 26.4489C37.9916 23.9742 37.3303 21.6539 36.1749 19.6551L37.6475 18.1857L42.3603 19.2013L43.7272 17.8358C44.9013 20.4669 45.5539 23.3817 45.5539 26.4489C45.5539 38.1348 36.0806 47.6082 24.3946 47.6082C12.7087 47.6082 3.23535 38.1348 3.23535 26.4489C3.23535 14.763 12.7087 5.28962 24.3945 5.28962ZM24.3945 22.7577C22.3553 22.7577 20.7034 24.4095 20.7034 26.4488C20.7034 28.4882 22.3553 30.14 24.3945 30.14C26.4339 30.14 28.0857 28.4882 28.0857 26.4488C28.0857 25.8569 27.9464 25.2978 27.699 24.8021L36.8946 15.6258L41.6059 16.6411L48.3543 9.89265C48.484 9.76296 48.5293 9.58542 48.4773 9.40935C48.4255 9.23328 48.2913 9.10876 48.1119 9.07009L42.9356 7.95457L41.8199 2.77839C41.7812 2.599 41.6566 2.46482 41.4807 2.41287C41.3046 2.36101 41.1271 2.40623 40.9975 2.53601L34.249 9.28445L35.2564 13.9591L26.0482 23.148C25.5509 22.8983 24.9892 22.7577 24.3945 22.7577ZM24.3945 15.1956C18.1795 15.1956 13.1412 20.2339 13.1412 26.4489C13.1412 32.6639 18.1795 37.7022 24.3945 37.7022C30.6096 37.7022 35.6479 32.6639 35.6479 26.4489C35.6479 24.626 35.214 22.9047 34.4445 21.3818L30.3496 25.4681C30.4019 25.7874 30.4294 26.1149 30.4294 26.4489C30.4294 29.7819 27.7274 32.4838 24.3945 32.4838C21.0616 32.4838 18.3597 29.7818 18.3597 26.4489C18.3597 23.116 21.0615 20.414 24.3945 20.414C24.7329 20.414 25.0646 20.4424 25.3878 20.4959L29.4828 16.4094C27.9548 15.6334 26.2259 15.1956 24.3945 15.1956Z" fill="#F57F20"/>
</g>
<defs>
<clipPath id="clip0_278_3204">
<rect width="50" height="50" fill="white" transform="translate(0.5)"/>
</clipPath>
</defs>
</svg>
