<svg width="81" height="81" viewBox="0 0 81 81" fill="none" xmlns="http://www.w3.org/2000/svg">
<g clip-path="url(#clip0_278_3216)">
<path d="M48.855 18.5592C52.56 20.8822 55.158 24.8132 55.631 29.3762C57.142 30.0822 58.819 30.4882 60.597 30.4882C67.088 30.4882 72.349 25.2272 72.349 18.7372C72.349 12.2462 67.088 6.98523 60.597 6.98523C54.168 6.98723 48.953 12.1542 48.855 18.5592ZM41.156 42.6212C47.647 42.6212 52.908 37.3592 52.908 30.8692C52.908 24.3792 47.646 19.1182 41.156 19.1182C34.666 19.1182 29.402 24.3802 29.402 30.8702C29.402 37.3602 34.666 42.6212 41.156 42.6212ZM46.141 43.4222H36.169C27.872 43.4222 21.122 50.1732 21.122 58.4702V70.6652L21.153 70.8562L21.993 71.1192C29.911 73.5932 36.79 74.4182 42.452 74.4182C53.511 74.4182 59.921 71.2652 60.316 71.0642L61.101 70.6672H61.185V58.4702C61.188 50.1732 54.438 43.4222 46.141 43.4222ZM65.584 31.2902H55.689C55.582 35.2492 53.892 38.8142 51.219 41.3782C58.594 43.5712 63.99 50.4102 63.99 58.4882V62.2462C73.76 61.8882 79.39 59.1192 79.761 58.9332L80.546 58.5352H80.63V46.3362C80.63 38.0402 73.88 31.2902 65.584 31.2902ZM20.535 30.4902C22.834 30.4902 24.973 29.8192 26.785 28.6762C27.361 24.9192 29.375 21.6362 32.252 19.4002C32.264 19.1802 32.285 18.9622 32.285 18.7402C32.285 12.2492 27.023 6.98823 20.535 6.98823C14.043 6.98823 8.783 12.2492 8.783 18.7402C8.783 25.2282 14.043 30.4902 20.535 30.4902ZM31.089 41.3782C28.429 38.8272 26.745 35.2812 26.622 31.3462C26.255 31.3192 25.892 31.2902 25.518 31.2902H15.547C7.25 31.2902 0.5 38.0402 0.5 46.3362V58.5332L0.531 58.7212L1.371 58.9862C7.723 60.9692 13.392 61.8832 18.316 62.1712V58.4882C18.318 50.4102 23.712 43.5732 31.089 41.3782Z" fill="#F57F20"/>
</g>
<defs>
<clipPath id="clip0_278_3216">
<rect width="80.13" height="80.13" fill="white" transform="translate(0.5 0.637207)"/>
</clipPath>
</defs>
</svg>
