<svg width="76" height="76" viewBox="0 0 76 76" fill="none" xmlns="http://www.w3.org/2000/svg">
<g clip-path="url(#clip0_278_3337)">
<path fill-rule="evenodd" clip-rule="evenodd" d="M67.3366 17.3257C69.2674 17.3285 71.144 16.6872 72.6692 15.5032C74.1944 14.3192 75.2811 12.6602 75.757 10.789C76.233 8.91774 76.0711 6.94119 75.297 5.17233C74.5229 3.40347 73.1809 1.94341 71.4833 1.02335C69.7858 0.103293 67.8299 -0.224169 65.9252 0.0928198C64.0206 0.409809 62.2762 1.35313 60.9681 2.7734C59.6601 4.19368 58.8633 6.00972 58.7038 7.93395C58.5444 9.85818 59.0314 11.7806 60.0878 13.3968L54.9872 18.5366C50.2887 14.4248 44.2584 12.1567 38.0148 12.1531C31.7713 12.1494 25.7382 14.4104 21.0349 18.5166L15.9121 13.3955C17.0839 11.6 17.5487 9.43387 17.2167 7.31565C16.8848 5.19742 15.7796 3.27737 14.1147 1.92638C12.4498 0.575387 10.3434 -0.110682 8.20217 0.00070079C6.061 0.112083 4.03706 1.01301 2.52133 2.52946C1.0056 4.04591 0.105622 6.07026 -0.00475128 8.21149C-0.115124 10.3527 0.571937 12.4589 1.92371 14.1231C3.27549 15.7874 5.19607 16.8917 7.31444 17.2226C9.43282 17.5536 11.5987 17.0877 13.3937 15.9151L18.5148 21.0362C14.4101 25.7395 12.15 31.7715 12.1533 38.014C12.1566 44.2566 14.4232 50.2862 18.5329 54.9851L13.3966 60.0875C11.5999 58.9126 9.43151 58.4452 7.31033 58.7758C5.18915 59.1063 3.26575 60.2113 1.91174 61.8772C0.557724 63.5432 -0.130804 65.6518 -0.0208215 67.7958C0.089161 69.9397 0.989849 71.9668 2.50723 73.4855C4.0246 75.0041 6.05098 75.9065 8.19485 76.0182C10.3387 76.13 12.4479 75.4432 14.115 74.0905C15.782 72.7379 16.8886 70.8154 17.2209 68.6945C17.5532 66.5736 17.0876 64.4048 15.9141 62.6071L21.0539 57.5009C25.7542 61.5962 31.7786 63.8506 38.0128 63.8473C44.2469 63.844 50.2689 61.5831 54.9648 57.4828L60.0859 62.6039C58.9129 64.4 58.4472 66.5672 58.7787 68.6867C59.1102 70.8061 60.2155 72.7276 61.8809 74.0798C63.5464 75.4319 65.6539 76.1189 67.7963 76.008C69.9387 75.8971 71.9639 74.9962 73.4809 73.4793C74.9978 71.9623 75.8987 69.937 76.0096 67.7947C76.1205 65.6523 75.4335 63.5448 74.0814 61.8793C72.7292 60.2139 70.8077 59.1086 68.6883 58.7771C66.5688 58.4456 64.4016 58.9113 62.6054 60.0843L57.4844 54.9632C61.5831 50.2675 63.8432 44.2466 63.8469 38.0137C63.8506 31.7808 61.5977 25.7572 57.5045 21.0566L62.6083 15.9136C64.0127 16.8355 65.6566 17.3258 67.3366 17.3237V17.3257ZM47.1242 33.5129L38.3588 44.6854C38.2087 44.8771 38.0208 45.0359 37.8069 45.1521C37.5929 45.2683 37.3574 45.3394 37.1149 45.3609C37.0619 45.3652 37.0099 45.3683 36.958 45.3683C36.5205 45.3683 36.0985 45.207 35.7724 44.9154L29.0897 38.9518C28.9153 38.796 28.7732 38.6073 28.6717 38.3966C28.5701 38.1859 28.5111 37.9572 28.4979 37.7236C28.4847 37.4901 28.5177 37.2562 28.5949 37.0354C28.6721 36.8146 28.792 36.6112 28.9478 36.4367C29.1037 36.2622 29.2923 36.1202 29.5031 36.0186C29.7138 35.9171 29.9425 35.858 30.176 35.8448C30.4096 35.8317 30.6434 35.8646 30.8642 35.9418C31.0851 36.019 31.2885 36.139 31.463 36.2948L36.7279 40.9946L44.3203 31.3152C44.4647 31.1311 44.6438 30.9772 44.8476 30.8623C45.0515 30.7475 45.2759 30.6739 45.5081 30.6458C45.7404 30.6177 45.9759 30.6355 46.2012 30.6984C46.4265 30.7613 46.6372 30.868 46.8214 31.0123C47.0055 31.1567 47.1593 31.3359 47.2742 31.5397C47.389 31.7435 47.4626 31.9679 47.4907 32.2001C47.5189 32.4324 47.501 32.6679 47.4381 32.8932C47.3752 33.1185 47.2685 33.3293 47.1242 33.5134V33.5129ZM38.0003 21.375C41.2884 21.375 44.5027 22.3501 47.2367 24.1769C49.9706 26.0036 52.1015 28.6001 53.3598 31.6379C54.6181 34.6757 54.9473 38.0185 54.3059 41.2434C53.6644 44.4684 52.081 47.4306 49.756 49.7557C47.4309 52.0807 44.4686 53.6641 41.2437 54.3056C38.0187 54.9471 34.676 54.6178 31.6382 53.3595C28.6004 52.1012 26.0039 49.9704 24.1771 47.2364C22.3503 44.5024 21.3753 41.2882 21.3753 38C21.38 33.5923 23.1331 29.3664 26.2499 26.2496C29.3666 23.1328 33.5925 21.3798 38.0003 21.375ZM38.0003 51.0625C35.4168 51.0625 32.8913 50.2964 30.7432 48.8611C28.595 47.4258 26.9208 45.3857 25.9321 42.9988C24.9435 40.612 24.6848 37.9855 25.1888 35.4517C25.6928 32.9178 26.9369 30.5903 28.7637 28.7635C30.5905 26.9366 32.9181 25.6926 35.4519 25.1885C37.9858 24.6845 40.6122 24.9432 42.9991 25.9319C45.386 26.9205 47.426 28.5948 48.8614 30.7429C50.2967 32.891 51.0628 35.4165 51.0628 38C51.0589 41.4632 49.6814 44.7834 47.2325 47.2323C44.7837 49.6811 41.4635 51.0586 38.0003 51.0625Z" fill="#F57F20"/>
</g>
<defs>
<clipPath id="clip0_278_3337">
<rect width="76" height="76" fill="white"/>
</clipPath>
</defs>
</svg>
