<svg width="98" height="98" viewBox="0 0 98 98" fill="none" xmlns="http://www.w3.org/2000/svg">
<path d="M40.5781 53.2109C41.7409 53.2109 42.6836 52.2683 42.6836 51.1055C42.6836 49.9427 41.7409 49 40.5781 49C39.4153 49 38.4727 49.9427 38.4727 51.1055C38.4727 52.2683 39.4153 53.2109 40.5781 53.2109Z" fill="#F57F20"/>
<path d="M57.4219 53.2109C58.5847 53.2109 59.5273 52.2683 59.5273 51.1055C59.5273 49.9427 58.5847 49 57.4219 49C56.2591 49 55.3164 49.9427 55.3164 51.1055C55.3164 52.2683 56.2591 53.2109 57.4219 53.2109Z" fill="#F57F20"/>
<path d="M49 53.2109C50.1628 53.2109 51.1055 52.2683 51.1055 51.1055C51.1055 49.9427 50.1628 49 49 49C47.8372 49 46.8945 49.9427 46.8945 51.1055C46.8945 52.2683 47.8372 53.2109 49 53.2109Z" fill="#F57F20"/>
<path d="M58.0547 17.6049H17.6797C13.9834 17.6049 11 20.5883 11 24.2845V51.0033C11 54.6992 13.9834 57.683 17.6797 57.683H19.9062V64.3627C19.9062 65.9713 21.5719 67.1362 23.2016 66.322C23.2461 66.2775 23.3353 66.2775 23.3798 66.2328C35.6283 58.019 32.8833 59.8505 35.6259 58.0391C35.982 57.8164 36.3828 57.683 36.8281 57.683H58.0547C61.7509 57.683 64.7344 54.6992 64.7344 51.0033V24.2845C64.7344 20.5883 61.7509 17.6049 58.0547 17.6049ZM40.2422 44.3236H22.1328C19.1978 44.3236 19.1857 39.8705 22.1328 39.8705H40.2422C43.1772 39.8705 43.1893 44.3236 40.2422 44.3236ZM53.6016 35.4174H22.1328C19.1978 35.4174 19.1857 30.9642 22.1328 30.9642H53.6016C56.5366 30.9642 56.5486 35.4174 53.6016 35.4174Z" fill="#F57F20"/>
<path d="M80.3203 35.4174H69.1875V51.0033C69.1875 57.1486 64.2 62.1361 58.0547 62.1361H37.4961L33.2656 64.9416V68.8158C33.2656 72.5117 36.2491 75.4955 39.9453 75.4955H61.8397L74.6202 84.0453C76.3646 85.0139 78.0938 83.836 78.0938 82.1752V75.4955H80.3203C84.0166 75.4955 87 72.5117 87 68.8158V42.097C87 38.401 84.0166 35.4174 80.3203 35.4174Z" fill="#F57F20"/>
</svg>
