<svg width="76" height="76" viewBox="0 0 76 76" fill="none" xmlns="http://www.w3.org/2000/svg">
<path d="M57.3794 45.4973L66.4856 50.9297C67.4022 51.4785 68.1263 52.2978 68.5583 53.2749C68.9904 54.252 69.1091 55.339 68.8983 56.3863C68.4891 58.4821 67.6541 60.4715 66.4451 62.2315C65.236 63.9916 63.6786 65.4847 61.8693 66.6185C60.06 67.7523 58.0373 68.5027 55.9263 68.8232C53.8153 69.1437 51.661 69.0275 49.5967 68.4818C39.5351 65.7228 30.3646 60.3925 22.9871 53.015C15.6095 45.6374 10.2789 36.4666 7.51931 26.4044C6.97306 24.3404 6.85622 22.1863 7.17604 20.0753C7.49586 17.9644 8.24553 15.9415 9.37863 14.132C10.5117 12.3226 12.0042 10.7649 13.7635 9.55555C15.5229 8.34618 17.5117 7.51083 19.6069 7.10122H19.6621C20.7143 6.88988 21.8063 7.01128 22.7864 7.44859C23.7666 7.88589 24.5863 8.61742 25.132 9.54169L30.5227 18.6176C31.4432 20.1773 31.7301 22.0309 31.3241 23.796C30.9182 25.5611 29.8503 27.103 28.3409 28.1037L22.6297 31.9127C26.6724 41.5991 34.3614 49.3073 44.0372 53.3736L47.8803 47.6344C48.8887 46.1293 50.4362 45.0686 52.2036 44.6709C53.971 44.2733 55.8236 44.5691 57.3794 45.4973ZM67.9505 9.43828C67.6874 8.80592 67.1841 8.30383 66.5511 8.04225C66.239 7.911 65.9039 7.84305 65.5654 7.84232H54.0775C53.3919 7.84232 52.7344 8.11469 52.2496 8.59952C51.7648 9.08435 51.4924 9.74191 51.4924 10.4276C51.4924 11.1132 51.7648 11.7708 52.2496 12.2556C52.7344 12.7404 53.3919 13.0128 54.0775 13.0128H59.3234L46.5051 25.8356C46.2511 26.0723 46.0474 26.3577 45.9061 26.6748C45.7648 26.992 45.6888 27.3343 45.6827 27.6814C45.6766 28.0285 45.7404 28.3733 45.8704 28.6952C46.0004 29.0171 46.194 29.3096 46.4394 29.5551C46.6849 29.8005 46.9773 29.9941 47.2992 30.1241C47.6211 30.2541 47.9658 30.318 48.3129 30.3119C48.66 30.3057 49.0023 30.2298 49.3194 30.0885C49.6365 29.9472 49.9219 29.7434 50.1586 29.4894L62.9803 16.6701V21.9164C62.9803 22.602 63.2527 23.2596 63.7375 23.7444C64.2223 24.2293 64.8798 24.5016 65.5654 24.5016C66.251 24.5016 66.9085 24.2293 67.3933 23.7444C67.878 23.2596 68.1504 22.602 68.1504 21.9164V10.4276C68.1493 10.0879 68.0814 9.75173 67.9505 9.43828Z" fill="#F57F20"/>
</svg>
