<svg width="58" height="58" viewBox="0 0 58 58" fill="none" xmlns="http://www.w3.org/2000/svg">
<g clip-path="url(#clip0_278_3192)">
<path d="M57.6814 28.011C57.1637 27.2872 44.8216 10.3083 29.1139 10.3083C13.405 10.3083 0.836299 27.2872 0.318604 28.011C-0.106201 28.6024 -0.106201 29.3987 0.318604 29.9889C0.836299 30.7128 13.405 47.6915 29.1139 47.6915C44.8216 47.6915 57.1637 30.7128 57.6814 29.9888C58.1062 29.3987 58.1062 28.6023 57.6814 28.011ZM29.1139 40.8945C22.5559 40.8945 16.9927 35.5578 16.9927 28.9999C16.9927 22.4419 22.5559 17.1052 29.1139 17.1052C35.6719 17.1052 41.0085 22.4419 41.0085 28.9999C41.0085 35.5578 35.6719 40.8945 29.1139 40.8945Z" fill="#F57F20"/>
<path d="M29.1143 23.9023C26.3026 23.9023 23.79 26.1895 23.79 29C23.79 31.8116 26.3026 34.0977 29.1143 34.0977C31.9248 34.0977 34.2119 31.8116 34.2119 29C34.2119 26.1895 31.9248 23.9023 29.1143 23.9023Z" fill="#F57F20"/>
</g>
<defs>
<clipPath id="clip0_278_3192">
<rect width="58" height="58" fill="white"/>
</clipPath>
</defs>
</svg>
