<svg width="306" height="58" viewBox="0 0 306 58" fill="none" xmlns="http://www.w3.org/2000/svg">
<path d="M0 21.0443C0 21.0914 0 21.1385 0 21.1856V37.6621C0 37.7092 0 37.7563 0 37.8034V21.0364V21.0443ZM36.3341 16.293H27.6283L3.46039 40.4265C2.87322 41.0155 2.30954 41.361 1.82414 41.471C2.66184 42.1464 3.72657 42.5547 4.87743 42.5547H24.0348L37.7668 56.3924C38.5027 57.1385 39.1916 57.4919 39.7475 57.4919C40.6322 57.4919 41.2115 56.6123 41.2115 54.971V21.1856C41.2115 18.4919 39.0116 16.293 36.3341 16.293Z" fill="#E6E6E6"/>
<path d="M41.219 54.9713V21.131C41.219 18.4373 39.0347 16.2305 36.365 16.2305H4.24291C3.4287 16.254 2.70061 16.8902 2.07429 17.3457C1.21311 17.9739 0.821663 18.8692 1.6437 19.7095L25.5689 43.9922L37.7977 56.4085C38.5258 57.1546 39.2069 57.5079 39.7706 57.5079C40.6475 57.5079 41.2268 56.6284 41.2268 54.9792" fill="#F0F0F0"/>
<path d="M38.5653 0.5H4.88526C2.19993 0.5 0 2.70681 0 5.39267V37.8037C0.0391447 39.2801 0.743749 40.5995 1.82414 41.4712C2.30954 41.3613 2.86539 41.0157 3.46039 40.4267L27.6283 16.2932L39.9824 3.9555C40.7183 3.21728 41.0784 2.53403 41.0784 1.96859C41.0784 1.08115 40.2016 0.5 38.5653 0.5Z" fill="white"/>
<path d="M60.5488 39.6571V14.2671H66.3579V25.6153L76.786 14.4399H83.7851L73.7876 24.7043L84.1139 39.6571H77.3576L69.9279 28.7174L66.3579 32.4477V39.6571H60.5488Z" fill="white"/>
<path d="M99.5456 40.2304C95.7407 40.2304 92.5622 38.966 90.0256 36.4293C87.489 33.9005 86.2129 30.8141 86.2129 27.1859V27.0916C86.2129 23.4319 87.4968 20.3141 90.0726 17.7539C92.6404 15.1937 95.8346 13.9058 99.6395 13.9058C103.444 13.9058 106.67 15.1702 109.206 17.7068C111.743 20.2356 113.019 23.3377 113.019 26.9974V27.0916C113.019 30.6885 111.735 33.7749 109.159 36.3586C106.592 38.9346 103.382 40.2304 99.5377 40.2304M99.6395 35.1649C101.926 35.1649 103.765 34.3953 105.159 32.8482C106.552 31.301 107.257 29.4162 107.257 27.1859V27.0916C107.257 24.8298 106.529 22.9136 105.065 21.3351C103.601 19.7565 101.761 18.9712 99.5456 18.9712C97.33 18.9712 95.4667 19.7408 94.0731 21.288C92.6796 22.8351 91.975 24.7356 91.975 26.9974V27.0916C91.975 29.322 92.7031 31.2225 94.1671 32.8011C95.6233 34.3796 97.4552 35.1649 99.6395 35.1649Z" fill="white"/>
<path d="M119.305 39.657V14.4398H125.114V18.3115C127.212 15.3822 129.827 13.9136 132.966 13.9136C135.792 13.9136 137.992 14.7853 139.558 16.5131C141.132 18.2487 141.915 20.5968 141.915 23.5576V39.657H136.153V25.3246C136.153 23.3534 135.683 21.8298 134.751 20.7617C133.812 19.6937 132.489 19.1596 130.774 19.1596C129.06 19.1596 127.689 19.7172 126.656 20.8324C125.623 21.9476 125.106 23.479 125.106 25.4188V39.6492H119.297L119.305 39.657Z" fill="white"/>
<path d="M157.776 40.0891C152.953 40.0891 150.542 37.6231 150.542 32.6833V19.4032H147.355V14.4399H150.542V7.51318H156.304V14.4399H163.068V19.4032H156.304V31.7723C156.304 33.8771 157.337 34.9216 159.396 34.9216C160.633 34.9216 161.823 34.6388 162.966 34.0655V38.7933C161.408 39.6493 159.678 40.0812 157.776 40.0812" fill="white"/>
<path d="M176.628 40.1832C174.123 40.1832 172.001 39.5 170.271 38.1256C168.541 36.7591 167.68 34.8429 167.68 32.3926V32.2984C167.68 29.6204 168.627 27.6021 170.514 26.2356C172.401 24.8691 174.937 24.178 178.108 24.178C180.425 24.178 182.68 24.5314 184.872 25.2303V24.6099C184.872 20.9502 182.79 19.1204 178.632 19.1204C176.346 19.1204 173.951 19.6466 171.445 20.6989L169.872 16.1596C173.074 14.7932 176.252 14.1021 179.392 14.1021C183.134 14.1021 185.913 15.0445 187.722 16.9214C189.53 18.7356 190.438 21.335 190.438 24.7041V39.657H184.817V36.5078C182.782 38.9581 180.057 40.1832 176.628 40.1832ZM178.249 35.9816C180.182 35.9816 181.787 35.479 183.056 34.4738C184.324 33.4685 184.958 32.1727 184.958 30.5785V28.8586C183.244 28.1911 181.341 27.8534 179.243 27.8534C177.372 27.8534 175.916 28.2225 174.89 28.9528C173.857 29.6832 173.34 30.7199 173.34 32.0549V32.1492C173.34 33.3272 173.802 34.2617 174.718 34.945C175.642 35.6282 176.816 35.9738 178.241 35.9738" fill="white"/>
<path d="M197.775 39.657V13.9136H203.577V25.6151L214.005 14.4398H221.004L211.006 24.7042L221.34 39.657H214.576L207.154 28.7172L203.577 32.4476V39.657H197.775Z" fill="white"/>
<path d="M232.771 40.1832C230.265 40.1832 228.144 39.5 226.414 38.1256C224.683 36.7591 223.822 34.8429 223.822 32.3926V32.2984C223.822 29.6204 224.77 27.6021 226.656 26.2356C228.543 24.8691 231.08 24.178 234.25 24.178C236.568 24.178 238.822 24.5314 241.015 25.2303V24.6099C241.015 20.9502 238.932 19.1204 234.775 19.1204C232.489 19.1204 230.093 19.6466 227.588 20.6989L226.014 16.1596C229.216 14.7932 232.395 14.1021 235.534 14.1021C239.277 14.1021 242.056 15.0445 243.864 16.9214C245.673 18.7356 246.581 21.335 246.581 24.7041V39.657H240.96V36.5078C238.924 38.9581 236.2 40.1832 232.771 40.1832ZM234.383 35.9816C236.317 35.9816 237.922 35.479 239.19 34.4738C240.459 33.4685 241.093 32.1727 241.093 30.5785V28.8586C239.378 28.1911 237.476 27.8534 235.378 27.8534C233.507 27.8534 232.05 28.2225 231.025 28.9528C229.991 29.6832 229.475 30.7199 229.475 32.0549V32.1492C229.475 33.3272 229.937 34.2617 230.853 34.945C231.776 35.6282 232.951 35.9738 234.376 35.9738" fill="white"/>
<path d="M253.908 39.657V14.4397H259.717V18.2643C261.815 15.3664 264.368 13.9214 267.382 13.9214C270.936 13.9214 273.441 15.4057 274.905 18.3664C277.16 15.4057 279.986 13.9214 283.384 13.9214C286.148 13.9214 288.301 14.7617 289.859 16.4502C291.417 18.1387 292.192 20.5104 292.192 23.5654V39.6648H286.43V25.3324C286.43 23.3298 285.983 21.7984 285.099 20.746C284.206 19.6936 282.954 19.1675 281.341 19.1675C279.728 19.1675 278.421 19.7172 277.434 20.8167C276.448 21.9162 275.954 23.4554 275.954 25.4266V39.657H270.192V25.2774C270.192 23.3062 269.746 21.7905 268.861 20.7381C267.969 19.6858 266.716 19.1596 265.104 19.1596C263.491 19.1596 262.183 19.7251 261.197 20.8559C260.21 21.9868 259.717 23.5104 259.717 25.4188V39.6491H253.908V39.657Z" fill="white"/>
<path d="M299.707 5.07861H305.9V10.5681H299.707V5.07861ZM299.903 14.4399H305.712V39.6571H299.903V14.4399Z" fill="white"/>
</svg>
