<svg width="66" height="66" viewBox="0 0 66 66" fill="none" xmlns="http://www.w3.org/2000/svg">
<path d="M12.0061 6.60005C11.4784 6.59691 10.9555 6.69867 10.4675 6.89941C9.97954 7.10014 9.53634 7.39585 9.16366 7.76935L5.46656 11.5093C4.15784 12.772 3.23599 14.3815 2.80896 16.1491C1.37126 22.1298 1.22826 34.4168 16.405 49.5946C31.5817 64.7724 43.8687 64.6272 49.845 63.1906C51.6102 62.7661 53.218 61.8478 54.4804 60.5429L58.2347 56.8326C58.9828 56.0763 59.4025 55.0553 59.4025 53.9913C59.4025 52.9274 58.9828 51.9064 58.2347 51.15L50.9934 43.9307C50.625 43.5555 50.1856 43.2574 49.7008 43.0538C49.216 42.8502 48.6955 42.7452 48.1697 42.7449H48.1576C47.6275 42.7441 47.1025 42.8485 46.6131 43.052C46.1236 43.2556 45.6795 43.5543 45.3064 43.9307L41.903 47.3341C41.1053 48.1331 40.0661 48.6463 38.9468 48.7939C37.8275 48.9415 36.6908 48.7152 35.7133 48.1503C32.0282 46.0096 28.653 43.3753 25.6813 40.3205C22.6241 37.3463 19.9879 33.9681 17.846 30.2797C17.2837 29.3043 17.0587 28.1708 17.2058 27.0545C17.353 25.9383 17.8641 24.9018 18.66 24.1054L22.07 20.6954C22.4474 20.3212 22.7466 19.8756 22.9501 19.3846C23.1537 18.8936 23.2576 18.367 23.2558 17.8354C23.2555 17.3107 23.1509 16.7912 22.9481 16.3072C22.7452 15.8232 22.4483 15.3844 22.0744 15.0161L14.8496 7.76825C14.4764 7.39516 14.0329 7.09981 13.5448 6.89928C13.0567 6.69876 12.5337 6.59705 12.0061 6.60005Z" fill="#F57F20"/>
<path d="M59.5815 2.64666C59.2841 2.35683 58.885 2.19518 58.4697 2.19642C58.0545 2.19765 57.6563 2.36167 57.3606 2.65326L44.1661 15.8401C43.9598 16.0463 43.6801 16.1621 43.3884 16.1621C43.0967 16.1621 42.817 16.0463 42.6107 15.8401L40.3843 13.6148C40.2451 13.4706 40.0679 13.3687 39.8733 13.3208C39.6787 13.273 39.4745 13.2811 39.2843 13.3442C39.103 13.4001 38.9416 13.507 38.8193 13.6521C38.6971 13.7972 38.6191 13.9744 38.5946 14.1626L36.3154 28.4395C36.2883 28.6089 36.3017 28.7824 36.3545 28.9458C36.4074 29.1091 36.4981 29.2575 36.6194 29.379C36.7407 29.5005 36.889 29.5915 37.0522 29.6446C37.2154 29.6978 37.3889 29.7115 37.5584 29.6847L51.8265 27.4055C52.0134 27.3815 52.1896 27.3047 52.3344 27.1841C52.4792 27.0635 52.5865 26.9041 52.6438 26.7246C52.7073 26.5329 52.7153 26.3272 52.6668 26.1312C52.6183 25.9352 52.5154 25.7569 52.3699 25.6169L50.16 23.3883C49.9545 23.1821 49.8391 22.9028 49.8391 22.6117C49.8391 22.3205 49.9545 22.0412 50.16 21.8351L63.3457 8.63506C63.6394 8.34077 63.8043 7.942 63.8043 7.52626C63.8043 7.11051 63.6394 6.71174 63.3457 6.41746L59.5815 2.64666Z" fill="#F57F20"/>
</svg>
