<svg width="161" height="31" viewBox="0 0 161 31" fill="none" xmlns="http://www.w3.org/2000/svg">
<path d="M0 11.3129C0 11.3377 0 11.3625 0 11.3873V20.0592C0 20.084 0 20.1088 0 20.1336V11.3088V11.3129ZM19.1232 8.81226H14.5412L1.82126 21.5141C1.51222 21.8241 1.21555 22.006 0.960075 22.0638C1.40097 22.4193 1.96135 22.6342 2.56707 22.6342H12.6499L19.8773 29.9172C20.2646 30.3099 20.6272 30.4959 20.9197 30.4959C21.3854 30.4959 21.6903 30.033 21.6903 29.1691V11.3873C21.6903 9.9696 20.5324 8.81226 19.1232 8.81226Z" fill="#1D184F"/>
<path d="M21.6941 29.169V11.3583C21.6941 9.94053 20.5445 8.77905 19.1394 8.77905H2.23301C1.80448 8.79145 1.42127 9.12626 1.09163 9.36599C0.638376 9.69666 0.432351 10.1679 0.865003 10.6101L13.4572 23.3905L19.8934 29.9254C20.2766 30.318 20.6351 30.504 20.9318 30.504C21.3933 30.504 21.6982 30.0411 21.6982 29.1731" fill="#F57F20"/>
<path d="M20.2975 0.5H2.57119C1.15786 0.5 0 1.66148 0 3.07509V20.1335C0.0206025 20.9106 0.391447 21.605 0.960075 22.0638C1.21555 22.0059 1.5081 21.8241 1.82126 21.5141L14.5412 8.81221L21.0434 2.31868C21.4307 1.93015 21.6202 1.57054 21.6202 1.27294C21.6202 0.805869 21.1587 0.5 20.2975 0.5Z" fill="#424EA1"/>
<path d="M31.8682 21.109V7.74585H34.9256V13.7186L40.4141 7.83678H44.0978L38.8359 13.2391L44.2708 21.109H40.7149L36.8045 15.3513L34.9256 17.3146V21.109H31.8682Z" fill="#1D184F"/>
<path d="M52.3922 21.4107C50.3896 21.4107 48.7167 20.7452 47.3817 19.4102C46.0466 18.0792 45.375 16.4548 45.375 14.5452V14.4956C45.375 12.5694 46.0508 10.9285 47.4064 9.58102C48.7579 8.23354 50.4391 7.55566 52.4416 7.55566C54.4442 7.55566 56.1418 8.22114 57.4769 9.55622C58.8119 10.8872 59.4836 12.5198 59.4836 14.446V14.4956C59.4836 16.3887 58.8078 18.0131 57.4522 19.373C56.1006 20.7287 54.4112 21.4107 52.3881 21.4107M52.4416 18.7447C53.6448 18.7447 54.6131 18.3396 55.3466 17.5254C56.08 16.7111 56.4509 15.7191 56.4509 14.5452V14.4956C56.4509 13.3052 56.0677 12.2966 55.2971 11.4658C54.5266 10.635 53.5583 10.2217 52.3922 10.2217C51.2261 10.2217 50.2454 10.6268 49.512 11.441C48.7785 12.2553 48.4077 13.2556 48.4077 14.446V14.4956C48.4077 15.6695 48.7909 16.6697 49.5614 17.5006C50.3278 18.3314 51.292 18.7447 52.4416 18.7447Z" fill="#1D184F"/>
<path d="M62.7922 21.109V7.83675H65.8496V9.8745C66.9539 8.33275 68.3301 7.55981 69.9825 7.55981C71.47 7.55981 72.6278 8.01862 73.4519 8.92796C74.2801 9.84143 74.6922 11.0773 74.6922 12.6356V21.109H71.6595V13.5656C71.6595 12.5281 71.4123 11.7263 70.9219 11.1641C70.4275 10.602 69.7311 10.3209 68.8287 10.3209C67.9263 10.3209 67.2053 10.6144 66.6613 11.2013C66.1174 11.7883 65.8455 12.5943 65.8455 13.6152V21.1049H62.7881L62.7922 21.109Z" fill="#1D184F"/>
<path d="M83.04 21.3364C80.5018 21.3364 79.2327 20.0385 79.2327 17.4386V10.4491H77.5557V7.83679H79.2327V4.19116H82.2654V7.83679H85.8255V10.4491H82.2654V16.9591C82.2654 18.0669 82.8093 18.6166 83.893 18.6166C84.544 18.6166 85.1703 18.4678 85.7719 18.1661V20.6544C84.9519 21.1049 84.0413 21.3322 83.04 21.3322" fill="#1D184F"/>
<path d="M92.9627 21.3859C91.6441 21.3859 90.5274 21.0263 89.6168 20.3029C88.7062 19.5837 88.2529 18.5752 88.2529 17.2856V17.236C88.2529 15.8265 88.7515 14.7642 89.7446 14.045C90.7376 13.3258 92.0726 12.962 93.7414 12.962C94.9611 12.962 96.1478 13.1481 97.3015 13.5159V13.1894C97.3015 11.2632 96.2055 10.3002 94.0175 10.3002C92.8143 10.3002 91.5534 10.5771 90.2349 11.131L89.4067 8.74188C91.092 8.02267 92.7649 7.65894 94.4172 7.65894C96.3868 7.65894 97.8496 8.15494 98.8014 9.14282C99.7532 10.0976 100.231 11.4658 100.231 13.239V21.1089H97.2727V19.4514C96.2014 20.7411 94.7674 21.3859 92.9627 21.3859ZM93.8156 19.1745C94.8334 19.1745 95.6781 18.91 96.3456 18.3809C97.0131 17.8518 97.3469 17.1698 97.3469 16.3307V15.4255C96.4445 15.0742 95.4432 14.8965 94.3389 14.8965C93.3541 14.8965 92.5877 15.0907 92.0479 15.4751C91.504 15.8595 91.2321 16.4051 91.2321 17.1078V17.1574C91.2321 17.7774 91.4752 18.2693 91.9573 18.6289C92.4435 18.9885 93.0615 19.1704 93.8115 19.1704" fill="#1D184F"/>
<path d="M104.092 21.109V7.55981H107.145V13.7185L112.634 7.83675H116.317L111.055 13.2391L116.494 21.109H112.934L109.028 15.3512L107.145 17.3146V21.109H104.092Z" fill="#1D184F"/>
<path d="M122.511 21.3859C121.192 21.3859 120.075 21.0263 119.165 20.3029C118.254 19.5837 117.801 18.5752 117.801 17.2856V17.236C117.801 15.8265 118.299 14.7642 119.292 14.045C120.285 13.3258 121.62 12.962 123.289 12.962C124.509 12.962 125.696 13.1481 126.849 13.5159V13.1894C126.849 11.2632 125.753 10.3002 123.565 10.3002C122.362 10.3002 121.101 10.5771 119.783 11.131L118.955 8.74188C120.64 8.02267 122.313 7.65894 123.965 7.65894C125.935 7.65894 127.397 8.15494 128.349 9.14282C129.301 10.0976 129.779 11.4658 129.779 13.239V21.1089H126.821V19.4514C125.749 20.7411 124.315 21.3859 122.511 21.3859ZM123.359 19.1745C124.377 19.1745 125.222 18.91 125.889 18.3809C126.557 17.8518 126.891 17.1698 126.891 16.3307V15.4255C125.988 15.0742 124.987 14.8965 123.883 14.8965C122.898 14.8965 122.131 15.0907 121.592 15.4751C121.048 15.8595 120.776 16.4051 120.776 17.1078V17.1574C120.776 17.7774 121.019 18.2693 121.501 18.6289C121.987 18.9885 122.605 19.1704 123.355 19.1704" fill="#1D184F"/>
<path d="M133.636 21.109V7.83677H136.693V9.84972C137.797 8.32451 139.141 7.56396 140.727 7.56396C142.598 7.56396 143.916 8.34517 144.687 9.90345C145.874 8.34517 147.361 7.56396 149.149 7.56396C150.604 7.56396 151.737 8.00624 152.557 8.89491C153.377 9.78358 153.785 11.0319 153.785 12.6397V21.1132H150.752V13.5698C150.752 12.5157 150.517 11.7097 150.052 11.1559C149.582 10.602 148.923 10.3251 148.074 10.3251C147.225 10.3251 146.537 10.6144 146.018 11.1931C145.499 11.7717 145.239 12.5819 145.239 13.6194V21.109H142.206V13.5408C142.206 12.5033 141.972 11.7056 141.506 11.1517C141.036 10.5979 140.377 10.3209 139.528 10.3209C138.679 10.3209 137.991 10.6185 137.472 11.2137C136.953 11.8089 136.693 12.6108 136.693 13.6152V21.1049H133.636V21.109Z" fill="#1D184F"/>
<path d="M157.74 2.90967H161V5.79889H157.74V2.90967ZM157.843 7.83665H160.901V21.1089H157.843V7.83665Z" fill="#1D184F"/>
</svg>
