<svg width="31" height="31" viewBox="0 0 31 31" fill="none" xmlns="http://www.w3.org/2000/svg">
<path d="M24.6422 18.8303L29.0963 21.4874C29.5447 21.7559 29.8988 22.1566 30.1102 22.6345C30.3215 23.1125 30.3796 23.6441 30.2765 24.1564C30.0763 25.1815 29.6679 26.1547 29.0765 27.0155C28.4851 27.8764 27.7234 28.6068 26.8384 29.1613C25.9534 29.7159 24.964 30.083 23.9314 30.2397C22.8989 30.3965 21.8451 30.3397 20.8354 30.0727C15.914 28.7232 11.4284 26.116 7.81979 22.5074C4.21119 18.8988 1.60381 14.4131 0.254011 9.49131C-0.0131794 8.48175 -0.0703263 7.4281 0.086108 6.39556C0.242542 5.36303 0.609228 4.3736 1.16347 3.48852C1.7177 2.60343 2.4477 1.84154 3.30825 1.25C4.16881 0.65846 5.14162 0.249865 6.16645 0.0495083H6.19343C6.70812 -0.0538629 7.24222 0.00551977 7.72164 0.219419C8.20107 0.433319 8.60204 0.791131 8.86895 1.24322L11.5057 5.68255C11.956 6.44547 12.0963 7.35211 11.8977 8.21546C11.6991 9.07881 11.1768 9.83302 10.4385 10.3225L7.64499 12.1856C9.62239 16.9235 13.3833 20.6939 18.1161 22.6828L19.9959 19.8756C20.4891 19.1394 21.246 18.6206 22.1105 18.4261C22.975 18.2316 23.8812 18.3762 24.6422 18.8303ZM29.8129 1.19264C29.6842 0.883334 29.438 0.637746 29.1284 0.509796C28.9757 0.445601 28.8118 0.412362 28.6462 0.412006H23.0271C22.6918 0.412006 22.3702 0.545232 22.133 0.782377C21.8959 1.01952 21.7627 1.34116 21.7627 1.67653C21.7627 2.01191 21.8959 2.33354 22.133 2.57069C22.3702 2.80783 22.6918 2.94106 23.0271 2.94106H25.5931L19.3232 9.21311C19.199 9.32888 19.0993 9.46848 19.0302 9.6236C18.9611 9.77871 18.924 9.94616 18.921 10.1159C18.918 10.2857 18.9492 10.4544 19.0128 10.6118C19.0764 10.7693 19.171 10.9123 19.2911 11.0324C19.4112 11.1525 19.5542 11.2471 19.7116 11.3107C19.8691 11.3743 20.0377 11.4056 20.2075 11.4026C20.3773 11.3996 20.5447 11.3624 20.6998 11.2933C20.8549 11.2242 20.9945 11.1245 21.1102 11.0003L27.3818 4.72994V7.29609C27.3818 7.63146 27.515 7.9531 27.7521 8.19024C27.9893 8.42739 28.3109 8.56062 28.6462 8.56062C28.9816 8.56062 29.3032 8.42739 29.5403 8.19024C29.7774 7.9531 29.9106 7.63146 29.9106 7.29609V1.67653C29.9101 1.51038 29.8769 1.34596 29.8129 1.19264Z" fill="#F57F20"/>
</svg>
