<svg width="100" height="100" viewBox="0 0 100 100" fill="none" xmlns="http://www.w3.org/2000/svg">
<circle cx="50" cy="50" r="50" fill="#F57F20"/>
<g clip-path="url(#clip0_312_3467)">
<path d="M50.3709 18.5186C33.1886 18.5186 19.2598 32.4474 19.2598 49.6297C19.2598 66.8119 33.1886 80.7408 50.3709 80.7408C67.5531 80.7408 81.482 66.8119 81.482 49.6297C81.482 32.4474 67.5531 18.5186 50.3709 18.5186ZM64.3873 35.8025L50.3594 46.8925L35.8751 35.8025H64.3873ZM65.8305 63.4568H34.4313V40.4862L48.9049 51.4644C49.2929 51.7611 49.8671 51.9094 50.33 51.9094C50.8038 51.9094 51.2152 51.7539 51.6075 51.4439L65.8305 40.1298V63.4568Z" fill="white"/>
</g>
<defs>
<clipPath id="clip0_312_3467">
<rect width="62.2222" height="62.2222" fill="white" transform="translate(19.2598 18.5186)"/>
</clipPath>
</defs>
</svg>
