<svg width="100" height="100" viewBox="0 0 100 100" fill="none" xmlns="http://www.w3.org/2000/svg">
<circle cx="50" cy="50" r="50" fill="#F57F20"/>
<g clip-path="url(#clip0_312_3468)">
<path fill-rule="evenodd" clip-rule="evenodd" d="M50.3552 80.2562C33.4368 80.2562 19.7168 66.5415 19.7168 49.6295C19.7168 32.7175 33.4368 19.0027 50.3552 19.0027C67.2737 19.0027 80.9937 32.7175 80.9937 49.6295C80.9937 66.5415 67.2737 80.2562 50.3552 80.2562ZM50.3552 29.7086C58.7367 29.7086 65.5309 36.5002 65.5309 44.8785C65.5309 53.2564 50.3552 69.5501 50.3552 69.5501C50.3552 69.5501 35.1796 53.2564 35.1796 44.8785C35.1796 36.5002 41.9738 29.7086 50.3552 29.7086ZM50.3552 38.8513C53.533 38.8513 56.11 41.4273 56.11 44.604C56.11 47.7805 53.533 50.3566 50.3552 50.3566C47.1775 50.3566 44.6005 47.7805 44.6005 44.604C44.6005 41.4273 47.1775 38.8513 50.3552 38.8513Z" fill="white"/>
</g>
<defs>
<clipPath id="clip0_312_3468">
<rect width="61.2769" height="61.2536" fill="white" transform="translate(19.7168 19.0027)"/>
</clipPath>
</defs>
</svg>
