<svg width="100" height="100" viewBox="0 0 100 100" fill="none" xmlns="http://www.w3.org/2000/svg">
<circle cx="50" cy="50" r="50" fill="#F57F20"/>
<path d="M50.3711 18.3796C44.1904 18.3796 38.1486 20.2124 33.0095 23.6462C27.8705 27.08 23.8651 31.9606 21.4999 37.6708C19.1346 43.381 18.5158 49.6643 19.7216 55.7262C20.9274 61.7881 23.9036 67.3563 28.274 71.7267C32.6444 76.0971 38.2126 79.0734 44.2745 80.2792C50.3364 81.485 56.6198 80.8661 62.33 78.5009C68.0402 76.1356 72.9207 72.1302 76.3545 66.9912C79.7883 61.8522 81.6211 55.8103 81.6211 49.6296C81.6211 41.3416 78.3287 33.3931 72.4682 27.5326C66.6077 21.672 58.6591 18.3796 50.3711 18.3796ZM51.7107 37.5755C54.5514 37.5788 57.2747 38.7087 59.2834 40.7174C61.292 42.726 62.422 45.4494 62.4253 48.2901H59.7461C59.7439 46.1596 58.8966 44.1171 57.3902 42.6106C55.8837 41.1041 53.8411 40.2568 51.7107 40.2546V37.5755ZM60.3878 68.3796C60.3065 68.3796 52.2628 68.2421 41.919 58.0817C31.7586 47.7421 31.6211 39.6942 31.6211 39.613C31.6211 38.6109 37.8711 30.8796 39.2524 30.8796C39.7315 30.8796 40.1044 31.2046 40.5128 31.6921C41.4961 32.863 45.844 39.7255 45.644 40.8692C45.5482 41.4067 45.0919 41.8151 43.7836 42.913C43.1389 43.4198 42.5356 43.9771 41.9794 44.5796C42.2458 45.6821 42.6416 46.7493 43.1586 47.7588C45.0847 51.7191 48.2849 54.9178 52.2461 56.8421C53.2556 57.3591 54.3228 57.7549 55.4253 58.0213C56.0278 57.4651 56.5851 56.8618 57.0919 56.2171C58.1899 54.9088 58.5982 54.4526 59.1357 54.3567C60.2794 54.1484 67.1419 58.5046 68.3128 59.488C68.8003 59.9046 69.1253 60.2692 69.1253 60.7484C69.1211 62.1296 61.3899 68.3796 60.3878 68.3796ZM66.4419 48.2901C66.4375 44.3844 64.8841 40.6401 62.1224 37.8784C59.3607 35.1167 55.6163 33.5632 51.7107 33.5588V30.8796C56.3265 30.8852 60.7517 32.7212 64.0156 35.9851C67.2795 39.249 69.1156 43.6742 69.1211 48.2901H66.4419Z" fill="white"/>
</svg>
