<svg width="110" height="110" viewBox="0 0 110 110" fill="none" xmlns="http://www.w3.org/2000/svg">
<path fill-rule="evenodd" clip-rule="evenodd" d="M26.4145 64.8368C26.4145 63.6851 25.3782 62.7652 24.1314 62.7413C16.0071 62.7413 11.9551 62.7413 11.9551 62.7413C10.6839 62.7413 9.64765 63.6853 9.64765 64.8368V87.2566C9.64765 88.4106 10.6839 89.3527 11.9551 89.3527H24.1314C25.3782 89.3527 26.4145 88.4106 26.4145 87.2566C26.4145 79.7914 26.4145 72.3273 26.4145 64.8368ZM56.1102 51.7448H98.1227C99.4897 51.7448 100.618 52.8747 100.618 54.2392V82.3825H53.615V54.2392C53.615 52.8747 54.7447 51.7448 56.1102 51.7448ZM48.8804 84.7837H68.4027V85.9382C68.4027 86.5974 68.922 87.1165 69.5572 87.1165H84.6749C85.3128 87.1165 85.8538 86.5974 85.8538 85.9382V84.7837H105.351V87.0689C105.351 88.3182 104.315 89.3527 103.068 89.3527H51.1652C49.917 89.3527 48.8802 88.3184 48.8802 87.0689L48.8804 84.7837ZM56.7696 54.877H97.4863V80.6868H56.7696V54.877ZM47.0909 89.3527H29.7107V85.9847H33.8559C36.0699 85.961 37.9775 84.7128 38.9194 82.8767H45.8188C46.0784 82.8767 46.2905 82.8072 46.4786 82.6648V87.069C46.4788 87.8936 46.714 88.6715 47.0909 89.3527ZM46.7849 82.3825C46.9497 82.1934 47.0203 81.9348 47.0203 81.6764C47.0203 81.0172 46.4786 80.4749 45.8188 80.4749H39.5558C39.5558 80.4056 39.5558 80.3336 39.5558 80.2624V75.6017H51.2129V82.3827H46.7849V82.3825ZM9.64765 21.6473H86.5597V49.3421H56.1102C53.4259 49.3421 51.2131 51.5329 51.2131 54.2392V64.4377H28.7927C28.5818 62.0825 26.4847 60.3631 24.1312 60.3631C20.0569 60.3631 16.0069 60.3401 11.9321 60.3631C11.1312 60.3631 10.3298 60.5761 9.64746 60.9279L9.64765 21.6473ZM51.2131 73.2223H28.8176V66.841H51.2131V73.2223ZM47.138 70.6315C46.4788 70.6315 45.9377 70.0894 45.9377 69.43C45.9377 68.7716 46.4786 68.2297 47.138 68.2297H49.2584C49.9168 68.2297 50.4587 68.7714 50.4587 69.43C50.4587 70.0894 49.9168 70.6315 49.2584 70.6315H47.138ZM12.0496 65.6382C12.0496 71.6438 12.0257 77.6492 12.0496 83.6547H24.0138C24.0366 77.6492 24.0366 71.6438 24.0138 65.6382H12.0496ZM17.5835 87.5851C16.9242 87.5851 16.3832 87.069 16.3832 86.3855C16.3832 85.7275 16.9242 85.2088 17.5835 85.2088H18.4786C19.1372 85.2088 19.6791 85.7277 19.6791 86.3855C19.6791 87.0689 19.1372 87.5851 18.4786 87.5851H17.5835Z" fill="#F57F20"/>
</svg>
