<svg width="110" height="110" viewBox="0 0 110 110" fill="none" xmlns="http://www.w3.org/2000/svg">
<path fill-rule="evenodd" clip-rule="evenodd" d="M84.9591 23.4574L85.0379 23.5364L86.5933 25.092L86.6725 25.1709C88.0574 26.5558 89.2132 27.7117 90.0803 28.7332C90.9849 29.7986 91.7358 30.8973 92.1645 32.2173C92.8226 34.2425 92.8226 36.424 92.1645 38.4492C91.7358 39.7691 90.9849 40.8678 90.0803 41.9333C89.2132 42.9548 88.0574 44.1107 86.6725 45.4956L86.5933 45.5745L85.0379 47.1301L84.9591 47.209C83.5746 48.5941 82.4181 49.7499 81.3965 50.6171C80.331 51.5216 79.2325 52.2722 77.9125 52.7012C75.8874 53.3594 73.7057 53.3594 71.6806 52.7012C70.3606 52.2722 69.2621 51.5216 68.1965 50.6171C67.175 49.7499 66.0189 48.5938 64.634 47.209L64.5552 47.1301L62.9998 45.5745L62.9206 45.4956C61.5357 44.1107 60.38 42.9548 59.5128 41.9333C58.6082 40.8678 57.8573 39.7691 57.4286 38.4492C56.7705 36.424 56.7705 34.2425 57.4286 32.2173C57.8573 30.8973 58.6082 29.7986 59.5128 28.7332C60.38 27.7117 61.5357 26.5558 62.9206 25.1709L62.9998 25.092L64.5552 23.5364L64.634 23.4574C66.0189 22.0725 67.175 20.9165 68.1965 20.0493C69.2621 19.1448 70.3606 18.3941 71.6806 17.9653C73.7057 17.3072 75.8874 17.3072 77.9125 17.9653C79.2325 18.3941 80.331 19.1448 81.3965 20.0493C82.4181 20.9165 83.5742 22.0725 84.9591 23.4574ZM33.2516 19.7497H33.3632H35.5632H35.6748C37.6334 19.7497 39.2682 19.7497 40.6037 19.8588C41.9966 19.9726 43.3043 20.2187 44.541 20.8488C46.4383 21.8155 47.9808 23.358 48.9477 25.2554C49.5776 26.492 49.8236 27.7997 49.9376 29.1926C50.0465 30.5281 50.0466 32.1628 50.0466 34.1214V34.2331V36.4331V36.5447C50.0466 38.5032 50.0465 40.1381 49.9376 41.4735C49.8236 42.8665 49.5776 44.1742 48.9477 45.4108C47.9808 47.3081 46.4383 48.8508 44.541 49.8174C43.3043 50.4477 41.9966 50.6937 40.6037 50.8074C39.2682 50.9166 37.6334 50.9166 35.6748 50.9163H35.5632H33.3632H33.2516C31.2931 50.9166 29.6583 50.9166 28.3228 50.8074C26.9299 50.6937 25.6221 50.4477 24.3855 49.8174C22.4882 48.8508 20.9456 47.3081 19.9789 45.4108C19.3488 44.1742 19.1027 42.8665 18.9889 41.4735C18.8798 40.1381 18.8798 38.5033 18.8799 36.5448V36.4331V34.2331V34.1215C18.8798 32.163 18.8798 30.5281 18.9889 29.1926C19.1027 27.7997 19.3488 26.492 19.9789 25.2554C20.9456 23.358 22.4882 21.8155 24.3855 20.8488C25.6221 20.2187 26.9299 19.9726 28.3228 19.8588C29.6583 19.7497 31.2931 19.7497 33.2516 19.7497ZM33.3632 60.0829H33.2516C31.2931 60.0829 29.6583 60.0829 28.3228 60.1922C26.9299 60.3059 25.6221 60.5519 24.3855 61.1822C22.4882 62.1487 20.9456 63.6913 19.9789 65.5888C19.3488 66.8252 19.1027 68.1331 18.9889 69.5261C18.8798 70.8615 18.8798 72.4961 18.8799 74.4548V74.5663V76.7663V76.8781C18.8798 78.8365 18.8798 80.4714 18.9889 81.8068C19.1027 83.1998 19.3488 84.5077 19.9789 85.7441C20.9456 87.6416 22.4882 89.1842 24.3855 90.1507C25.6221 90.781 26.9299 91.027 28.3228 91.1407C29.6582 91.25 31.2929 91.25 33.2513 91.2496H33.3632H35.5632H35.6748C37.6332 91.25 39.2682 91.25 40.6037 91.1407C41.9966 91.027 43.3043 90.781 44.541 90.1507C46.4383 89.1842 47.9808 87.6416 48.9477 85.7441C49.5776 84.5077 49.8236 83.1998 49.9376 81.8068C50.0465 80.4714 50.0466 78.8365 50.0466 76.8781V76.7663V74.5663V74.4548C50.0466 72.4961 50.0465 70.8615 49.9376 69.5261C49.8236 68.1331 49.5776 66.8252 48.9477 65.5888C47.9808 63.6913 46.4383 62.1487 44.541 61.1822C43.3043 60.5519 41.9966 60.3059 40.6037 60.1922C39.2682 60.0829 37.6334 60.0829 35.6748 60.0829H35.5632H33.3632ZM73.5851 60.0829H73.6966H75.8965H76.008C77.9668 60.0829 79.6013 60.0829 80.9371 60.1922C82.3301 60.3059 83.6376 60.5519 84.8744 61.1822C86.7715 62.1487 88.3141 63.6913 89.281 65.5888C89.9109 66.8252 90.157 68.1331 90.271 69.5261C90.3799 70.8615 90.3799 72.4964 90.3799 74.4548V74.5663V76.7663V76.8781C90.3799 78.8365 90.3799 80.4714 90.271 81.8068C90.157 83.1998 89.9109 84.5077 89.281 85.7441C88.3141 87.6416 86.7715 89.1842 84.8744 90.1507C83.6376 90.781 82.3301 91.027 80.9371 91.1407C79.6017 91.25 77.9668 91.25 76.0084 91.2496H75.8965H73.6966H73.5851C71.6267 91.25 69.9914 91.25 68.656 91.1407C67.263 91.027 65.9555 90.781 64.7187 90.1507C62.8216 89.1842 61.279 87.6416 60.3121 85.7441C59.6822 84.5077 59.4361 83.1998 59.3221 81.8068C59.2132 80.4714 59.2132 78.8365 59.2132 76.8781V76.7663V74.5663V74.4548C59.2132 72.4964 59.2132 70.8615 59.3221 69.5261C59.4361 68.1331 59.6822 66.8252 60.3121 65.5888C61.279 63.6913 62.8216 62.1487 64.7187 61.1822C65.9555 60.5519 67.263 60.3059 68.656 60.1922C69.9918 60.0829 71.6264 60.0829 73.5851 60.0829Z" fill="#F57F20"/>
</svg>
