<svg width="94" height="94" viewBox="0 0 94 94" fill="none" xmlns="http://www.w3.org/2000/svg">
<path d="M33.324 60.6374C28.8287 64.168 25.9348 69.6472 25.9348 75.8016V81.5894H14.3591C11.1565 81.5894 8.57129 79.0042 8.57129 75.8016V71.943C8.57129 64.4767 14.6099 58.438 22.0763 58.438H25.9348C28.6744 58.438 31.2018 59.2483 33.324 60.6374Z" fill="#F57F20"/>
<path d="M70.3087 58.4381C75.1035 58.4381 78.9905 54.5511 78.9905 49.7563C78.9905 44.9615 75.1035 41.0745 70.3087 41.0745C65.5139 41.0745 61.627 44.9615 61.627 49.7563C61.627 54.5511 65.5139 58.4381 70.3087 58.4381Z" fill="#F57F20"/>
<path d="M24.006 58.4381C28.8008 58.4381 32.6878 54.5511 32.6878 49.7563C32.6878 44.9615 28.8008 41.0745 24.006 41.0745C19.2112 41.0745 15.3242 44.9615 15.3242 49.7563C15.3242 54.5511 19.2112 58.4381 24.006 58.4381Z" fill="#F57F20"/>
<path d="M85.7429 71.943V75.8016C85.7429 79.0042 83.1577 81.5895 79.9551 81.5895H68.3794V75.8016C68.3794 69.6472 65.4855 64.168 60.9902 60.6375C63.1124 59.2484 65.6398 58.4381 68.3794 58.4381H72.2379C79.7043 58.4381 85.7429 64.4767 85.7429 71.943Z" fill="#F57F20"/>
<path d="M47.1569 60.3673C53.0173 60.3673 57.768 55.6166 57.768 49.7563C57.768 43.8959 53.0173 39.1452 47.1569 39.1452C41.2966 39.1452 36.5459 43.8959 36.5459 49.7563C36.5459 55.6166 41.2966 60.3673 47.1569 60.3673Z" fill="#F57F20"/>
<path d="M49.0868 60.3673H45.2282C36.7181 60.3673 29.7939 67.2915 29.7939 75.8016V81.5894C29.7939 84.7805 32.3908 87.3773 35.5818 87.3773H58.7332C61.9242 87.3773 64.521 84.7805 64.521 81.5894V75.8016C64.521 67.2915 57.5968 60.3673 49.0868 60.3673Z" fill="#F57F20"/>
<path d="M75.1318 32.7478L70.4765 34.4031C69.1549 34.8719 67.7755 33.8706 67.8141 32.468L67.9491 27.5291L64.9356 23.6126C64.0809 22.5014 64.6076 20.8788 65.9523 20.4814L70.6926 19.0846L73.4862 15.008C74.2791 13.8524 75.9846 13.8524 76.7775 15.008L79.5711 19.0846L84.3114 20.4814C85.6561 20.8769 86.1828 22.5014 85.3281 23.6126L82.3146 27.5291L82.4496 32.468C82.4882 33.8687 81.1068 34.8719 79.7872 34.4031L75.1318 32.7478Z" fill="#F57F20"/>
<path d="M19.1826 32.7478L14.5273 34.4031C13.2057 34.8719 11.8263 33.8706 11.8649 32.468L11.9999 27.5291L8.98638 23.6126C8.13171 22.5014 8.6584 20.8788 10.0031 20.4814L14.7434 19.0846L17.537 15.008C18.3299 13.8524 20.0354 13.8524 20.8283 15.008L23.6219 19.0846L28.3622 20.4814C29.7069 20.8769 30.2336 22.5014 29.3789 23.6126L26.3653 27.5291L26.5004 32.468C26.539 33.8687 25.1576 34.8719 23.838 34.4031L19.1826 32.7478Z" fill="#F57F20"/>
<path d="M47.1577 28.4068L41.638 30.3689C40.0715 30.9265 38.4354 29.7361 38.4817 28.075L38.6419 22.2196L35.0688 17.5759C34.056 16.2582 34.6811 14.3347 36.2746 13.8639L41.8946 12.2067L45.2072 7.37382C46.1468 6.0021 48.1706 6.0021 49.1102 7.37382L52.4227 12.2067L58.0427 13.8639C59.6363 14.3347 60.2614 16.2582 59.2485 17.5759L55.6755 22.2196L55.8356 28.075C55.8819 29.7361 54.244 30.9265 52.6793 30.3689L47.1577 28.4068Z" fill="#F57F20"/>
</svg>
