<svg width="62" height="51" viewBox="0 0 62 51" fill="none" xmlns="http://www.w3.org/2000/svg">
<path d="M44.4316 34.4688C44.005 31.609 42.5534 28.9948 40.3401 27.1004C38.1268 25.2061 35.2985 24.157 32.3683 24.1436H29.6374C26.7072 24.157 23.8789 25.2061 21.6656 27.1004C19.4523 28.9948 18.0007 31.609 17.574 34.4688L16.265 43.4976C16.2232 43.7894 16.2509 44.0869 16.3457 44.3664C16.4406 44.6459 16.6002 44.8997 16.8117 45.1079C17.3251 45.6143 20.4744 48.1968 31.0054 48.1968C41.5364 48.1968 44.678 45.6244 45.1991 45.1079C45.4106 44.8997 45.5702 44.6459 45.6651 44.3664C45.76 44.0869 45.7876 43.7894 45.7458 43.4976L44.4316 34.4688Z" fill="#F57F20"/>
<path d="M19.604 25.5362C17.1234 27.792 15.5094 30.8242 15.0354 34.1194L14.0857 40.6011C6.46271 40.5504 4.15271 37.816 3.76771 37.2589C3.61889 37.0566 3.51269 36.8268 3.45538 36.5833C3.39807 36.3398 3.39082 36.0874 3.43405 35.8411L3.99871 32.7015C4.29291 31.0607 4.98385 29.514 6.01296 28.1927C7.04207 26.8714 8.379 25.8143 9.91038 25.1112C11.4418 24.408 13.1224 24.0795 14.8099 24.1535C16.4974 24.2275 18.1419 24.7018 19.604 25.5362Z" fill="#F57F20"/>
<path d="M58.5665 35.8411C58.6097 36.0874 58.6025 36.3398 58.5451 36.5833C58.4878 36.8268 58.3816 37.0566 58.2328 37.2589C57.8478 37.816 55.5378 40.5504 47.9148 40.6011L46.9651 34.1194C46.4911 30.8242 44.8771 27.792 42.3965 25.5362C43.8586 24.7018 45.5031 24.2275 47.1906 24.1535C48.8781 24.0795 50.5588 24.408 52.0901 25.1112C53.6215 25.8143 54.9585 26.8714 55.9876 28.1927C57.0167 29.514 57.7076 31.0607 58.0018 32.7015L58.5665 35.8411Z" fill="#F57F20"/>
<path d="M20.0408 19.966C19.3947 20.8698 18.537 21.6065 17.5405 22.1134C16.5441 22.6204 15.4383 22.8825 14.3171 22.8777C13.1987 22.8777 12.0963 22.6155 11.1008 22.1127C10.1052 21.61 9.24505 20.8811 8.59111 19.9861C7.93716 19.0911 7.50818 18.0556 7.33952 16.9649C7.17085 15.8743 7.26733 14.7597 7.621 13.7131C7.97467 12.6664 8.57541 11.7177 9.37371 10.945C10.172 10.1723 11.145 9.59779 12.2126 9.26883C13.2801 8.93987 14.4116 8.86587 15.5138 9.05292C16.616 9.23997 17.6574 9.68271 18.5521 10.3447C18.2948 11.3374 18.1654 12.3583 18.1671 13.383C18.1691 15.7051 18.8172 17.9822 20.0408 19.966Z" fill="#F57F20"/>
<path d="M54.742 15.9149C54.7426 16.8294 54.5605 17.7351 54.2061 18.5802C53.8516 19.4253 53.3317 20.1931 52.6761 20.8398C52.0206 21.4865 51.2422 21.9993 50.3855 22.349C49.5289 22.6987 48.6107 22.8783 47.6836 22.8777C46.5625 22.8825 45.4567 22.6204 44.4602 22.1134C43.4638 21.6065 42.606 20.8698 41.96 19.966C43.1836 17.9822 43.8317 15.7051 43.8336 13.383C43.8353 12.3583 43.706 11.3374 43.4486 10.3447C44.4973 9.56883 45.7442 9.09638 47.0497 8.98026C48.3553 8.86413 49.6678 9.10892 50.8402 9.6872C52.0126 10.2655 52.9987 11.1544 53.6878 12.2543C54.3769 13.3543 54.742 14.6218 54.742 15.9149Z" fill="#F57F20"/>
<path d="M31 22.8777C36.3157 22.8777 40.625 18.6268 40.625 13.383C40.625 8.13922 36.3157 3.88831 31 3.88831C25.6843 3.88831 21.375 8.13922 21.375 13.383C21.375 18.6268 25.6843 22.8777 31 22.8777Z" fill="#F57F20"/>
</svg>
