<svg width="85" height="84" viewBox="0 0 85 84" fill="none" xmlns="http://www.w3.org/2000/svg">
<g clip-path="url(#clip0_507_4354)">
<path d="M82.3575 32.8602L76.2332 31.6355C75.5594 29.4021 74.6664 27.2457 73.5664 25.1949L77.0302 19.9992C77.6811 19.023 77.5524 17.7233 76.7228 16.894L67.4421 7.61316C66.6126 6.78366 65.3129 6.65503 64.3369 7.30554L59.1409 10.7694C57.0902 9.66952 54.9338 8.77669 52.7003 8.10272L51.4755 1.97827C51.2457 0.828023 50.2355 0 49.0625 0H35.9375C34.7645 0 33.7543 0.828023 33.5243 1.97827L32.2996 8.10272C30.066 8.77669 27.9096 9.66968 25.859 10.7694L20.663 7.30554C19.6871 6.65503 18.3872 6.78366 17.5577 7.61316L8.27705 16.894C7.44739 17.7235 7.31877 19.0232 7.9696 19.9992L11.4335 25.1949C10.3334 27.2457 9.44059 29.4021 8.76662 31.6355L2.64233 32.8602C1.49209 33.0903 0.664062 34.1004 0.664062 35.2734V48.3984C0.664062 49.5715 1.49209 50.5816 2.64249 50.8115L8.76678 52.0364C9.44059 54.2696 10.3336 56.426 11.4336 58.4768L7.96977 63.6727C7.31893 64.6487 7.44772 65.9484 8.27722 66.7779L17.5579 76.0586C18.3876 76.8882 19.6871 77.0168 20.6631 76.3662L25.7527 72.9734V57.5244C21.8985 53.422 19.5312 47.9104 19.5312 41.8359C19.5312 29.1506 29.8147 18.8672 42.5 18.8672C55.1853 18.8672 65.4688 29.1506 65.4688 41.8359C65.4688 47.9104 63.1015 53.422 59.2473 57.5244V72.9734L64.3369 76.3662C64.7533 76.6438 65.2286 76.7796 65.7011 76.7796C66.3361 76.7796 66.9665 76.5343 67.4419 76.0587L76.7226 66.778C77.5521 65.9485 77.6809 64.6488 77.0301 63.6728L73.5662 58.477C74.6663 56.4262 75.5591 54.2697 76.2331 52.0365L82.3573 50.8116C83.5079 50.5816 84.3359 49.5715 84.3359 48.3984V35.2734C84.3359 34.1004 83.5079 33.0903 82.3575 32.8602Z" fill="#F57F20"/>
<path d="M50.2961 28.3518C49.0576 27.6343 47.4862 28.3956 47.2816 29.8121L45.7812 40.1953H39.2188L37.7186 29.8121C37.5138 28.3956 35.9426 27.6343 34.7041 28.3518C29.8989 31.1351 26.9141 36.3021 26.9141 41.8359C26.9141 47.8327 30.2724 53.1972 35.6784 55.8359L35.9375 55.9624V81.539C35.9375 82.8981 37.0393 84 38.3984 84H46.6016C47.9607 84 49.0625 82.8981 49.0625 81.539V55.9624L49.3216 55.8359C54.7276 53.1972 58.0859 47.8327 58.0859 41.8359C58.0859 36.3021 55.1012 31.1351 50.2961 28.3518Z" fill="#F57F20"/>
</g>
<defs>
<clipPath id="clip0_507_4354">
<rect width="84" height="84" fill="white" transform="translate(0.5)"/>
</clipPath>
</defs>
</svg>
