<svg width="110" height="109" viewBox="0 0 110 109" fill="none" xmlns="http://www.w3.org/2000/svg">
<path fill-rule="evenodd" clip-rule="evenodd" d="M59.316 41.695C61.7583 44.3889 63.9552 46.9403 65.9066 49.3677V77.4564H62.5177C59.242 77.4564 57.4614 81.3046 59.5814 83.8014L66.6884 92.172C61.6296 95.9783 55.0549 98.242 47.8451 98.1205C27.0651 98.4705 11.5486 79.019 22.4558 59.8674C25.4914 54.5375 30.1313 48.5814 36.3747 41.6949C36.9923 41.8697 37.6433 41.9635 38.3155 41.9635H57.3754C58.0474 41.9635 58.6984 41.8699 59.316 41.695ZM76.7112 97.7804L90.1601 81.9405C90.6997 81.3046 90.2495 80.3314 89.4154 80.3314H83.1515V49.2026C83.1515 48.1264 82.2739 47.2488 81.1978 47.2488L70.7351 47.249C69.659 47.249 68.7816 48.1266 68.7814 49.2027V80.3314H62.5175C61.6835 80.3314 61.2334 81.3048 61.7729 81.9405L75.2217 97.7804C75.612 98.2398 76.3212 98.24 76.7112 97.7804ZM38.3154 39.0885H57.3752C59.7251 39.0885 61.6476 37.1658 61.6476 34.8164C61.6476 32.4665 59.7251 30.5442 57.3752 30.5442H38.3154C35.9654 30.5442 34.0431 32.4665 34.0431 34.8162C34.0431 37.1662 35.9654 39.0885 38.3154 39.0885ZM48.9335 78.4616C45.9469 78.8239 42.5369 77.6751 41.7404 74.4805C41.5512 73.7114 40.7744 73.2413 40.0053 73.4304C39.2363 73.6196 38.7662 74.3964 38.9552 75.1654C39.8364 78.7002 42.8395 80.8202 46.3264 81.2964V83.233C46.3264 84.0269 46.97 84.6705 47.7639 84.6705C48.5577 84.6705 49.2014 84.0269 49.2014 83.2329V81.3221L49.2704 81.314C52.9604 80.866 56.7093 78.6787 56.6099 74.5133C56.6041 74.2681 56.5894 74.0456 56.5653 73.8476C56.0175 69.3339 51.9553 67.7531 48.0151 67.1063C46.6622 66.8842 45.2301 66.5036 44.1613 65.8059C43.2593 65.217 42.6119 64.3597 42.5508 63.0998C42.4356 60.7281 44.345 59.2403 46.4843 58.8094C47.4491 58.6151 48.5008 58.6381 49.4522 58.8793C51.0392 59.2816 52.4839 60.3272 53.2443 62.1381C53.5513 62.87 54.3936 63.2144 55.1255 62.9073C55.8574 62.6004 56.2018 61.758 55.8947 61.0262C54.6977 58.1751 52.235 56.3426 49.2014 55.9069V53.9761C49.2014 53.1823 48.5577 52.5386 47.7639 52.5386C46.97 52.5386 46.3264 53.1823 46.3264 53.9761V55.9293C46.1911 55.9505 46.0567 55.9748 45.9228 56.0016C42.3749 56.716 39.5013 59.4111 39.6869 63.2344C39.8991 67.6081 43.7791 69.3162 47.5545 69.9362C50.0551 70.3467 53.3505 71.2015 53.7126 74.1843C53.7326 74.3493 53.7437 74.4808 53.746 74.5805C53.8068 77.1267 51.0543 78.2041 48.9335 78.4616ZM38.7709 27.6692L34.6508 23.5493C32.9434 21.8419 32.9434 19.0478 34.6508 17.3404C36.1031 15.8881 38.402 15.6427 40.13 16.7519C41.4606 17.6056 43.2181 16.878 43.5551 15.3333C43.9854 13.3628 45.7499 11.8752 47.8453 11.875C49.9027 11.875 51.6972 13.3251 52.1357 15.3334C52.4728 16.8779 54.2301 17.606 55.5605 16.7521C57.2882 15.6432 59.5875 15.8883 61.0397 17.3402C62.7471 19.0476 62.7471 21.8421 61.0397 23.5493L56.9199 27.669L38.7709 27.6692Z" fill="#F57F20"/>
</svg>
