<svg width="56" height="56" viewBox="0 0 56 56" fill="none" xmlns="http://www.w3.org/2000/svg">
<path d="M54.25 23.625V32.375C54.25 34.7881 52.2881 36.75 49.875 36.75H48.6838C47.0107 46.6655 38.3855 54.25 28 54.25C27.0327 54.25 26.25 53.4673 26.25 52.5C26.25 51.5327 27.0327 50.75 28 50.75C37.6489 50.75 45.5 42.8989 45.5 33.25V22.75C45.5 13.1011 37.6489 5.25 28 5.25C18.3511 5.25 10.5 13.1011 10.5 22.75V35C10.5 35.9673 9.71729 36.75 8.75 36.75H6.125C3.71191 36.75 1.75 34.7881 1.75 32.375V23.625C1.75 21.2119 3.71191 19.25 6.125 19.25H7.31616C8.98926 9.33447 17.6145 1.75 28 1.75C38.3855 1.75 47.0107 9.33447 48.6838 19.25H49.875C52.2881 19.25 54.25 21.2119 54.25 23.625ZM28 8.75C20.2805 8.75 14 15.0305 14 22.75V31.5C14 39.2195 20.2805 45.5 28 45.5C35.7195 45.5 42 39.2195 42 31.5V22.75C42 15.0305 35.7195 8.75 28 8.75Z" fill="#F57F20"/>
</svg>
