<svg width="56" height="54" viewBox="0 0 56 54" fill="none" xmlns="http://www.w3.org/2000/svg">
<g clip-path="url(#clip0_507_4131)">
<path d="M38.722 3.45868H6.33281C2.84047 3.45868 0 6.29915 0 9.79149V38.1743C0 39.5185 1.5202 40.2763 2.59328 39.5098L11.6134 33.0741C12.3703 32.5349 13.2606 32.2495 14.1903 32.2495H34.0298C37.5222 32.2495 40.3627 29.409 40.3627 25.9166V5.0993C40.3627 4.19368 39.6277 3.45868 38.722 3.45868ZM30.753 23.3332H11.7972C10.8916 23.3332 10.1566 22.5993 10.1566 21.6926C10.1566 20.787 10.8916 20.052 11.7972 20.052H30.753C31.6586 20.052 32.3936 20.787 32.3936 21.6926C32.3936 22.5993 31.6586 23.3332 30.753 23.3332ZM30.753 15.677H11.7972C10.8916 15.677 10.1566 14.9431 10.1566 14.0363C10.1566 13.1307 10.8916 12.3957 11.7972 12.3957H30.753C31.6586 12.3957 32.3936 13.1307 32.3936 14.0363C32.3936 14.9431 31.6586 15.677 30.753 15.677Z" fill="#F57F20"/>
<path d="M56.0004 22.5173V50.899C56.0004 52.2341 54.4878 53.0064 53.4071 52.2344L44.3869 45.7999C43.63 45.2607 42.7397 44.9752 41.81 44.9752H21.9705C18.4782 44.9752 15.6377 42.1337 15.6377 38.6413V35.5307H34.0302C39.3316 35.5307 43.6443 31.218 43.6443 25.9166V16.1833H49.6675C53.1599 16.1833 56.0004 19.0249 56.0004 22.5173Z" fill="#F57F20"/>
</g>
<defs>
<clipPath id="clip0_507_4131">
<rect width="56" height="56" fill="white"/>
</clipPath>
</defs>
</svg>
