<svg width="110" height="109" viewBox="0 0 110 109" fill="none" xmlns="http://www.w3.org/2000/svg">
<path fill-rule="evenodd" clip-rule="evenodd" d="M63.9897 21.2353C66.6941 21.9935 69.2644 23.0675 71.6603 24.417L81.7634 19.952L89.5478 27.7363L85.0828 37.8395C86.4304 40.2372 87.5062 42.8075 88.2645 45.5119L98.5623 49.4977V60.506L88.2645 64.4918C87.5062 67.1961 86.4322 69.7664 85.0828 72.1642L89.5478 82.2673L81.7634 90.0517L71.6584 85.5867C69.2607 86.9343 66.6904 88.0102 63.9879 88.7684L60.0021 99.0662H48.9938L45.008 88.7684C42.3036 88.0102 39.7333 86.9361 37.3356 85.5867L27.2324 90.0517L19.448 82.2673L23.913 72.1623C22.5655 69.7664 21.4896 67.1943 20.7314 64.4918L10.4336 60.506V49.4977L20.7314 45.5119C21.4896 42.8075 22.5636 40.2372 23.913 37.8395L19.448 27.7363L27.2324 19.952L37.3374 24.417C39.7352 23.0694 42.3055 21.9935 45.008 21.2353L48.9938 10.9375H60.0021L63.9879 21.2353H63.9897ZM34.1355 52.426V63.0891H40.4677V52.426H34.1355ZM67.9076 42.9709V63.0891H74.2398V42.9709H67.9076ZM56.5413 50.8416V63.0891H62.8735V50.8416H56.5413ZM45.3935 47.0816V63.0873H51.7257V47.0816H45.3935ZM59.8166 42.1007C59.1006 42.1007 58.4452 42.3522 57.9311 42.7708L51.5329 39.0769C51.5439 38.9723 51.5494 38.8676 51.5494 38.7611C51.5494 37.1106 50.211 35.7704 48.5587 35.7704C46.9063 35.7704 45.5679 37.1088 45.5679 38.7611C45.5679 38.8988 45.5771 39.0365 45.5955 39.1687C45.5257 39.1926 45.4596 39.2238 45.3935 39.2623L39.0614 42.9177C38.5675 42.5579 37.9598 42.3449 37.3007 42.3449C35.6502 42.3449 34.31 43.6833 34.31 45.3356C34.31 46.988 35.6484 48.3264 37.3007 48.3264C38.953 48.3264 40.2914 46.988 40.2914 45.3356C40.2914 45.2291 40.2859 45.1227 40.2749 45.0198L46.6089 41.3627C46.6897 41.3168 46.7631 41.2617 46.8274 41.2011C47.3157 41.5481 47.9124 41.7519 48.5568 41.7519C49.2013 41.7519 49.8236 41.5389 50.3175 41.1791L56.8277 44.9372C56.8259 44.9886 56.8241 45.04 56.8241 45.0914C56.8241 46.742 58.1625 48.0822 59.8148 48.0822C61.4671 48.0822 62.8055 46.7438 62.8055 45.0914C62.8055 44.6343 62.7027 44.201 62.5191 43.8136L69.9969 36.3359C70.3311 36.4644 70.6927 36.536 71.0728 36.536C72.7233 36.536 74.0635 35.1976 74.0635 33.5452C74.0635 31.8929 72.7251 30.5545 71.0728 30.5545C69.4204 30.5545 68.082 31.8929 68.082 33.5452C68.082 33.9216 68.1518 34.2833 68.2785 34.6156L60.6685 42.2255C60.3986 42.1448 60.1122 42.1025 59.8148 42.1025L59.8166 42.1007ZM54.4998 28.6782C39.9646 28.6782 28.1798 40.4612 28.1798 54.9982C28.1798 69.5351 39.9628 81.3182 54.4998 81.3182C69.0367 81.3182 80.8198 69.5351 80.8198 54.9982C80.8198 48.4769 78.4459 42.5083 74.517 37.9111C75.8058 36.8921 76.6338 35.3151 76.6338 33.5452C76.6338 30.4755 74.1443 27.9842 71.0728 27.9842C68.798 27.9842 66.8428 29.352 65.9817 31.3091C62.5118 29.6237 58.6159 28.6782 54.4998 28.6782Z" fill="#F57F20"/>
</svg>
