<svg width="56" height="56" viewBox="0 0 56 56" fill="none" xmlns="http://www.w3.org/2000/svg">
<g clip-path="url(#clip0_1021_6348)">
<path fill-rule="evenodd" clip-rule="evenodd" d="M49.6158 12.7663C51.0385 12.7684 52.4212 12.2958 53.5451 11.4234C54.6689 10.551 55.4696 9.32856 55.8203 7.94975C56.171 6.57094 56.0517 5.11454 55.4813 3.81117C54.911 2.5078 53.9221 1.43196 52.6713 0.754025C51.4204 0.0760881 49.9792 -0.1652 48.5758 0.0683711C47.1724 0.301942 45.887 0.997021 44.9232 2.04354C43.9594 3.09005 43.3723 4.42819 43.2548 5.84605C43.1373 7.2639 43.4962 8.68043 44.2746 9.87132L40.5162 13.6585C37.0542 10.6288 32.6108 8.95758 28.0103 8.95487C23.4097 8.95215 18.9643 10.6181 15.4988 13.6438L11.724 9.87033C12.5874 8.54731 12.9299 6.95125 12.6853 5.39045C12.4408 3.82966 11.6264 2.41488 10.3997 1.41941C9.1729 0.423947 7.62075 -0.0815774 6.04304 0.000493886C4.46533 0.0825651 2.97401 0.746408 1.85715 1.86379C0.740298 2.98117 0.0771583 4.4728 -0.00416912 6.05055C-0.0854966 7.6283 0.420759 9.18021 1.41681 10.4065C2.41285 11.6328 3.82801 12.4465 5.38892 12.6903C6.94983 12.9342 8.54573 12.5909 9.86835 11.7269L13.6418 15.5003C10.6173 18.9659 8.95195 23.4106 8.9544 28.0103C8.95686 32.6101 10.627 37.053 13.6551 40.5154L9.87053 44.275C8.54665 43.4093 6.94887 43.0649 5.38589 43.3084C3.82292 43.552 2.40567 44.3662 1.40798 45.5937C0.410287 46.8213 -0.09705 48.375 -0.0160103 49.9548C0.0650294 51.5345 0.728694 53.0282 1.84676 54.1472C2.96483 55.2662 4.45795 55.931 6.03764 56.0134C7.61733 56.0957 9.17149 55.5897 10.3998 54.593C11.6282 53.5963 12.4435 52.1798 12.6884 50.617C12.9332 49.0542 12.5902 47.4561 11.7255 46.1315L15.5128 42.369C18.9761 45.3866 23.4152 47.0478 28.0087 47.0454C32.6023 47.0429 37.0395 45.377 40.4997 42.3557L44.2731 46.1291C43.4088 47.4526 43.0657 49.0495 43.31 50.6112C43.5542 52.1729 44.3686 53.5887 45.5958 54.5851C46.823 55.5814 48.3759 56.0876 49.9545 56.0059C51.5331 55.9242 53.0254 55.2603 54.1431 54.1426C55.2608 53.0248 55.9247 51.5325 56.0064 49.9539C56.0881 48.3753 55.5819 46.8225 54.5856 45.5953C53.5892 44.3681 52.1735 43.5537 50.6117 43.3094C49.05 43.0651 47.4532 43.4083 46.1297 44.2726L42.3562 40.4992C45.3763 37.0392 47.0417 32.6027 47.0444 28.0101C47.0472 23.4174 45.3871 18.979 42.3711 15.5154L46.1317 11.7258C47.1666 12.4051 48.3778 12.7663 49.6158 12.7648V12.7663ZM34.7224 24.6937L28.2637 32.926C28.1531 33.0673 28.0147 33.1844 27.857 33.27C27.6994 33.3556 27.5258 33.4079 27.3471 33.4238C27.3081 33.427 27.2698 33.4293 27.2315 33.4293C26.9092 33.4292 26.5982 33.3104 26.3579 33.0956L21.4339 28.7013C21.3053 28.5865 21.2006 28.4475 21.1258 28.2922C21.051 28.1369 21.0075 27.9684 20.9978 27.7963C20.9881 27.6243 21.0123 27.4519 21.0692 27.2892C21.1261 27.1265 21.2145 26.9766 21.3293 26.8481C21.4441 26.7195 21.5832 26.6148 21.7384 26.54C21.8937 26.4652 22.0622 26.4217 22.2343 26.412C22.4064 26.4023 22.5787 26.4265 22.7414 26.4834C22.9041 26.5403 23.054 26.6287 23.1826 26.7435L27.062 30.2065L32.6564 23.0743C32.7628 22.9386 32.8948 22.8253 33.045 22.7406C33.1951 22.656 33.3605 22.6018 33.5316 22.5811C33.7028 22.5604 33.8763 22.5735 34.0423 22.6199C34.2083 22.6662 34.3636 22.7448 34.4993 22.8512C34.6349 22.9575 34.7483 23.0896 34.8329 23.2397C34.9176 23.3899 34.9718 23.5553 34.9925 23.7264C35.0132 23.8975 35 24.0711 34.9537 24.2371C34.9073 24.4031 34.8288 24.5584 34.7224 24.694V24.6937ZM27.9996 15.75C30.4224 15.75 32.7908 16.4685 34.8053 17.8145C36.8198 19.1605 38.3899 21.0737 39.3171 23.3121C40.2443 25.5505 40.4868 28.0136 40.0142 30.3899C39.5415 32.7661 38.3748 34.9489 36.6616 36.6621C34.9484 38.3753 32.7657 39.542 30.3894 40.0146C28.0131 40.4873 25.5501 40.2447 23.3117 39.3175C21.0733 38.3904 19.1601 36.8202 17.814 34.8057C16.468 32.7912 15.7495 30.4228 15.7495 28C15.753 24.7522 17.0448 21.6384 19.3413 19.3418C21.6379 17.0452 24.7517 15.7535 27.9996 15.75ZM27.9996 37.625C26.0959 37.625 24.235 37.0605 22.6522 36.0029C21.0694 34.9453 19.8357 33.4421 19.1072 31.6833C18.3787 29.9246 18.1881 27.9893 18.5595 26.1223C18.9309 24.2552 19.8476 22.5402 21.1936 21.1941C22.5397 19.848 24.2547 18.9313 26.1218 18.5599C27.9889 18.1886 29.9241 18.3792 31.6829 19.1077C33.4416 19.8362 34.9448 21.0698 36.0024 22.6526C37.0601 24.2355 37.6245 26.0964 37.6245 28C37.6217 30.5518 36.6067 32.9983 34.8023 34.8027C32.9978 36.6071 30.5514 37.6221 27.9996 37.625Z" fill="#F57F20"/>
</g>
<defs>
<clipPath id="clip0_1021_6348">
<rect width="56" height="56" fill="white"/>
</clipPath>
</defs>
</svg>
