<svg width="59" height="55" viewBox="0 0 59 55" fill="none" xmlns="http://www.w3.org/2000/svg">
<path d="M10.1463 23.848L5.69296 25.9165C4.6952 26.3789 3.9408 27.2063 3.57577 28.2284C3.21074 29.2505 3.23508 30.3699 3.72178 31.3677L9.48929 43.7544C10.195 45.2389 11.6795 46.1149 13.2126 46.1149C13.7967 46.1149 14.3807 45.9933 14.9404 45.7256L19.0531 43.8031L10.1463 23.8237V23.848Z" fill="#F57F20"/>
<path d="M48.7903 33.1685L37.0849 8.05427C36.4035 6.56981 35.0894 5.52338 33.5076 5.15835C31.9258 4.79332 30.2953 5.15835 28.9325 6.30212L13.1875 21.6091L22.5323 42.5863L25.1362 42.0752L45.0426 40.4691C46.6244 40.1771 47.9629 39.1793 48.7173 37.7192C49.4717 36.2591 49.496 34.5799 48.8146 33.1198L48.7903 33.1685Z" fill="#F57F20"/>
<path d="M42.0249 11.6316C41.8302 11.6316 41.6112 11.6073 41.3922 11.5343C40.4431 11.1936 39.9564 10.1471 40.2971 9.19806L41.4652 5.98578C41.8059 5.0367 42.8523 4.54999 43.8014 4.89068C44.7505 5.23138 45.2372 6.2778 44.8965 7.22689L43.7284 10.4392C43.4607 11.1692 42.755 11.6316 42.0249 11.6316Z" fill="#F57F20"/>
<path d="M49.5454 19.3703C48.864 19.3703 48.2069 18.9809 47.8906 18.3239C47.4525 17.3991 47.8663 16.3284 48.7667 15.8903L51.8573 14.4546C52.782 14.0165 53.8528 14.4302 54.2908 15.3306C54.7289 16.2554 54.3151 17.3261 53.4147 17.7642L50.3241 19.2C50.0808 19.3216 49.8131 19.3703 49.5454 19.3703Z" fill="#F57F20"/>
<path d="M53.828 31.246C53.6334 31.246 53.4143 31.2217 53.1953 31.1487L49.983 29.9806C49.034 29.6399 48.5472 28.5934 48.8879 27.6443C49.2286 26.6953 50.2751 26.2086 51.2241 26.5493L54.4364 27.7174C55.3855 28.058 55.8722 29.1045 55.5315 30.0536C55.2638 30.7836 54.5581 31.246 53.8037 31.246H53.828Z" fill="#F57F20"/>
<path d="M28.8356 44.2654L25.4529 44.5331L21.681 45.2632L18.4443 46.772L20.7805 51.7851C21.3646 53.0262 22.6057 53.7563 23.8955 53.7563C24.3822 53.7563 24.8689 53.6589 25.3313 53.4399L28.6409 51.9068C30.3444 51.1037 31.0988 49.0595 30.2957 47.356L28.8356 44.2411V44.2654Z" fill="#F57F20"/>
</svg>
