<svg width="52" height="52" viewBox="0 0 52 52" fill="none" xmlns="http://www.w3.org/2000/svg">
<path d="M14.9949 45.9021C18.2623 47.7123 22.0152 48.75 26.0111 48.75C38.5727 48.75 48.7502 38.5506 48.7502 25.9889C48.7502 13.4273 38.5727 3.25 26.0111 3.25C13.4495 3.25 3.25 13.4273 3.25 25.9889C3.25 30.029 4.30976 33.7819 6.14205 37.0715L3.25 48.75L14.9949 45.9021ZM16.2533 15.944C16.783 15.4362 17.5558 15.2376 18.2623 15.3922L18.9907 15.5467C19.7193 15.7011 20.3154 16.1869 20.6024 16.8492L22.0373 20.0282C22.3906 20.8009 22.2582 21.7281 21.6841 22.3683L20.801 23.406C20.514 23.7371 20.4479 24.2448 20.6686 24.6423C23.2736 29.3225 26.6955 30.8458 28.2187 31.3093C28.6603 31.4639 29.1682 31.2653 29.411 30.8677L30.0512 29.8744C30.6694 28.9251 31.8836 28.5939 33.2302 29.2562L35.8794 30.5809C36.8949 31.0665 37.3585 32.2586 36.9832 33.3183C35.6366 37.2258 32.1926 36.7402 32.1926 36.7402C24.5541 36.5415 18.5712 29.499 15.9883 25.8786C14.7962 24.1786 14.0677 22.1255 14.2884 20.0282C14.5093 17.953 15.4806 16.6505 16.2533 15.944Z" fill="#F57F20"/>
</svg>
